<svg width="97" height="95" viewBox="0 0 97 95" fill="none" xmlns="http://www.w3.org/2000/svg">
<g filter="url(#filter0_b)">
<path d="M49.7669 5.05443L18.0861 13.9229C6.54113 17.1547 1.75253 25.8187 4.84569 37.8788L13.3257 70.9416C16.4188 83.0017 24.7125 88.0036 36.2574 84.7718L67.9382 75.9034C79.4832 72.6716 84.2416 64.016 81.1484 51.9559L72.6685 18.8931C69.5753 6.83301 61.3118 1.82265 49.7669 5.05443Z" fill="url(#paint0_linear)"/>
</g>
<g opacity="0.5" filter="url(#filter1_f)">
<path d="M65.3773 48.3838L59.6241 25.6165C57.5373 17.3583 52.3145 13.6554 45.4472 15.5494L22.1882 21.9641C15.2083 23.8892 12.5055 29.7779 14.5923 38.0362L20.3454 60.8034C22.4659 69.1947 27.5643 72.7867 34.5443 70.8616L57.8032 64.4469C64.6705 62.5529 67.4977 56.7751 65.3773 48.3838Z" fill="#FF624D"/>
</g>
<g filter="url(#filter2_b)">
<mask id="path-3-outside-1" maskUnits="userSpaceOnUse" x="24.7913" y="19.6517" width="73" height="76" fill="black">
<rect fill="white" x="24.7913" y="19.6517" width="73" height="76"/>
<path d="M77.3089 20.6517H44.5136C32.5625 20.6517 25.7913 27.7258 25.7913 40.2113V74.4404C25.7913 86.9259 32.5625 93.9999 44.5136 93.9999H77.3089C89.26 93.9999 96 86.9259 96 74.4404V40.2113C96 27.7258 89.26 20.6517 77.3089 20.6517Z"/>
</mask>
<path d="M77.3089 20.6517H44.5136C32.5625 20.6517 25.7913 27.7258 25.7913 40.2113V74.4404C25.7913 86.9259 32.5625 93.9999 44.5136 93.9999H77.3089C89.26 93.9999 96 86.9259 96 74.4404V40.2113C96 27.7258 89.26 20.6517 77.3089 20.6517Z" fill="#FFAC95" fill-opacity="0.4"/>
<path d="M77.3089 21.6517C77.8612 21.6517 78.3089 21.204 78.3089 20.6517C78.3089 20.0994 77.8612 19.6517 77.3089 19.6517V21.6517ZM77.3089 19.6517C76.7566 19.6517 76.3089 20.0994 76.3089 20.6517C76.3089 21.204 76.7566 21.6517 77.3089 21.6517V19.6517ZM77.3089 19.6517H44.5136V21.6517H77.3089V19.6517ZM44.5136 19.6517C38.3398 19.6517 33.3697 21.4837 29.9484 25.058C26.5332 28.6259 24.7913 33.7942 24.7913 40.2113H26.7913C26.7913 34.1428 28.435 29.5314 31.3932 26.4409C34.3453 23.3568 38.7363 21.6517 44.5136 21.6517V19.6517ZM24.7913 40.2113V74.4404H26.7913V40.2113H24.7913ZM24.7913 74.4404C24.7913 80.8575 26.5332 86.0258 29.9484 89.5937C33.3697 93.168 38.3398 94.9999 44.5136 94.9999V92.9999C38.7363 92.9999 34.3453 91.2948 31.3932 88.2108C28.435 85.1203 26.7913 80.5089 26.7913 74.4404H24.7913ZM44.5136 94.9999H77.3089V92.9999H44.5136V94.9999ZM77.3089 94.9999C83.4828 94.9999 88.4456 93.1679 91.8593 89.5928C95.2665 86.0246 97 80.8563 97 74.4404H95C95 80.5101 93.3635 85.1215 90.4129 88.2116C87.4688 91.2949 83.0861 92.9999 77.3089 92.9999V94.9999ZM97 74.4404V40.2113H95V74.4404H97ZM97 40.2113C97 33.7954 95.2665 28.6271 91.8593 25.0588C88.4456 21.4837 83.4828 19.6517 77.3089 19.6517V21.6517C83.0861 21.6517 87.4688 23.3567 90.4129 26.44C93.3635 29.5301 95 34.1416 95 40.2113H97Z" fill="url(#paint1_linear)" mask="url(#path-3-outside-1)"/>
</g>
<g filter="url(#filter3_bd)">
<mask id="path-5-inside-2" fill="white">
<path fill-rule="evenodd" clip-rule="evenodd" d="M61.0198 35.6478C59.4284 35.6478 58.1179 37.017 58.1179 38.7122V75.9405C58.1179 77.603 59.4284 78.9722 61.0198 78.9722C62.6424 78.9722 63.953 77.603 63.953 75.9405V38.7122C63.953 37.017 62.6424 35.6478 61.0198 35.6478ZM44.6377 47.678C43.0463 47.678 41.7357 49.0472 41.7357 50.7423L41.7357 75.9415C41.7357 77.6041 43.0463 78.9732 44.6377 78.9732C46.2603 78.9732 47.5709 77.6041 47.5709 75.9415V50.7423C47.5709 49.0472 46.2603 47.678 44.6377 47.678ZM74.2506 64.0426C74.2506 62.3474 75.5612 60.9782 77.1838 60.9782C78.7752 60.9782 80.0858 62.3474 80.0858 64.0426V75.9413C80.0858 77.6038 78.7752 78.973 77.1526 78.973C75.5612 78.973 74.2506 77.6038 74.2506 75.9413V64.0426Z"/>
</mask>
<path fill-rule="evenodd" clip-rule="evenodd" d="M61.0198 35.6478C59.4284 35.6478 58.1179 37.017 58.1179 38.7122V75.9405C58.1179 77.603 59.4284 78.9722 61.0198 78.9722C62.6424 78.9722 63.953 77.603 63.953 75.9405V38.7122C63.953 37.017 62.6424 35.6478 61.0198 35.6478ZM44.6377 47.678C43.0463 47.678 41.7357 49.0472 41.7357 50.7423L41.7357 75.9415C41.7357 77.6041 43.0463 78.9732 44.6377 78.9732C46.2603 78.9732 47.5709 77.6041 47.5709 75.9415V50.7423C47.5709 49.0472 46.2603 47.678 44.6377 47.678ZM74.2506 64.0426C74.2506 62.3474 75.5612 60.9782 77.1838 60.9782C78.7752 60.9782 80.0858 62.3474 80.0858 64.0426V75.9413C80.0858 77.6038 78.7752 78.973 77.1526 78.973C75.5612 78.973 74.2506 77.6038 74.2506 75.9413V64.0426Z" fill="url(#paint2_linear)"/>
<path d="M41.7357 75.9415H41.3357H41.7357ZM47.5709 75.9415H47.1709H47.5709ZM58.5179 38.7122C58.5179 37.2184 59.6684 36.0478 61.0198 36.0478V35.2478C59.1885 35.2478 57.7179 36.8156 57.7179 38.7122H58.5179ZM58.5179 75.9405V38.7122H57.7179V75.9405H58.5179ZM61.0198 78.5722C59.6656 78.5722 58.5179 77.3988 58.5179 75.9405H57.7179C57.7179 77.8073 59.1912 79.3722 61.0198 79.3722V78.5722ZM63.553 75.9405C63.553 77.3959 62.4079 78.5722 61.0198 78.5722V79.3722C62.8769 79.3722 64.353 77.8101 64.353 75.9405H63.553ZM63.553 38.7122V75.9405H64.353V38.7122H63.553ZM61.0198 36.0478C62.4052 36.0478 63.553 37.2212 63.553 38.7122H64.353C64.353 36.8128 62.8796 35.2478 61.0198 35.2478V36.0478ZM42.1357 50.7423C42.1357 49.2486 43.2862 48.078 44.6377 48.078V47.278C42.8064 47.278 41.3357 48.8458 41.3357 50.7423H42.1357ZM42.1357 75.9415V50.7423H41.3357V75.9415H42.1357ZM44.6377 78.5732C43.2835 78.5732 42.1357 77.3998 42.1357 75.9415H41.3357C41.3357 77.8083 42.8091 79.3732 44.6377 79.3732V78.5732ZM47.1709 75.9415C47.1709 77.397 46.0258 78.5732 44.6377 78.5732V79.3732C46.4948 79.3732 47.9709 77.8112 47.9709 75.9415H47.1709ZM47.1709 50.7423V75.9415H47.9709V50.7423H47.1709ZM44.6377 48.078C46.0231 48.078 47.1709 49.2514 47.1709 50.7423H47.9709C47.9709 48.8429 46.4975 47.278 44.6377 47.278V48.078ZM77.1838 60.5782C75.324 60.5782 73.8506 62.1432 73.8506 64.0426H74.6506C74.6506 62.5516 75.7984 61.3782 77.1838 61.3782V60.5782ZM80.4858 64.0426C80.4858 62.146 79.0151 60.5782 77.1838 60.5782V61.3782C78.5353 61.3782 79.6858 62.5488 79.6858 64.0426H80.4858ZM80.4858 75.9413V64.0426H79.6858V75.9413H80.4858ZM77.1526 79.373C79.0097 79.373 80.4858 77.8109 80.4858 75.9413H79.6858C79.6858 77.3967 78.5407 78.573 77.1526 78.573V79.373ZM73.8506 75.9413C73.8506 77.8081 75.324 79.373 77.1526 79.373V78.573C75.7984 78.573 74.6506 77.3996 74.6506 75.9413H73.8506ZM73.8506 64.0426V75.9413H74.6506V64.0426H73.8506Z" fill="url(#paint3_linear)" mask="url(#path-5-inside-2)"/>
</g>
<defs>
<filter id="filter0_b" x="-9.07342" y="-8.90515" width="104.144" height="107.637" filterUnits="userSpaceOnUse" color-interpolation-filters="sRGB">
<feFlood flood-opacity="0" result="BackgroundImageFix"/>
<feGaussianBlur in="BackgroundImage" stdDeviation="6.5"/>
<feComposite in2="SourceAlpha" operator="in" result="effect1_backgroundBlur"/>
<feBlend mode="normal" in="SourceGraphic" in2="effect1_backgroundBlur" result="shape"/>
</filter>
<filter id="filter1_f" x="0.905037" y="2.06348" width="78.163" height="82.3058" filterUnits="userSpaceOnUse" color-interpolation-filters="sRGB">
<feFlood flood-opacity="0" result="BackgroundImageFix"/>
<feBlend mode="normal" in="SourceGraphic" in2="BackgroundImageFix" result="shape"/>
<feGaussianBlur stdDeviation="6.5" result="effect1_foregroundBlur"/>
</filter>
<filter id="filter2_b" x="9.79128" y="4.65173" width="102.209" height="105.348" filterUnits="userSpaceOnUse" color-interpolation-filters="sRGB">
<feFlood flood-opacity="0" result="BackgroundImageFix"/>
<feGaussianBlur in="BackgroundImage" stdDeviation="7.5"/>
<feComposite in2="SourceAlpha" operator="in" result="effect1_backgroundBlur"/>
<feBlend mode="normal" in="SourceGraphic" in2="effect1_backgroundBlur" result="shape"/>
</filter>
<filter id="filter3_bd" x="26.7357" y="20.6478" width="68.35" height="73.3254" filterUnits="userSpaceOnUse" color-interpolation-filters="sRGB">
<feFlood flood-opacity="0" result="BackgroundImageFix"/>
<feGaussianBlur in="BackgroundImage" stdDeviation="7.5"/>
<feComposite in2="SourceAlpha" operator="in" result="effect1_backgroundBlur"/>
<feColorMatrix in="SourceAlpha" type="matrix" values="0 0 0 0 0 0 0 0 0 0 0 0 0 0 0 0 0 0 127 0"/>
<feOffset dx="5" dy="5"/>
<feGaussianBlur stdDeviation="5"/>
<feColorMatrix type="matrix" values="0 0 0 0 1 0 0 0 0 0.447059 0 0 0 0 0.368627 0 0 0 0.5 0"/>
<feBlend mode="normal" in2="effect1_backgroundBlur" result="effect2_dropShadow"/>
<feBlend mode="normal" in="SourceGraphic" in2="effect2_dropShadow" result="shape"/>
</filter>
<linearGradient id="paint0_linear" x1="49.207" y1="48.264" x2="-4.55458" y2="92.891" gradientUnits="userSpaceOnUse">
<stop stop-color="#FFA78F"/>
<stop offset="1" stop-color="#F23E2C"/>
</linearGradient>
<linearGradient id="paint1_linear" x1="36.9674" y1="29.1969" x2="84.1456" y2="85.1273" gradientUnits="userSpaceOnUse">
<stop stop-color="white" stop-opacity="0.25"/>
<stop offset="1" stop-color="white" stop-opacity="0"/>
</linearGradient>
<linearGradient id="paint2_linear" x1="31.8088" y1="67.8048" x2="51.0787" y2="105.698" gradientUnits="userSpaceOnUse">
<stop stop-color="white"/>
<stop offset="1" stop-color="white" stop-opacity="0.2"/>
</linearGradient>
<linearGradient id="paint3_linear" x1="47.8404" y1="40.6953" x2="75.9932" y2="71.559" gradientUnits="userSpaceOnUse">
<stop stop-color="white" stop-opacity="0.25"/>
<stop offset="1" stop-color="white" stop-opacity="0"/>
</linearGradient>
</defs>
</svg>
