<svg width="107" height="105" viewBox="0 0 107 105" fill="none" xmlns="http://www.w3.org/2000/svg">
<path d="M88.2074 41.5077L85.2612 38.6235C84.1154 37.5018 83.4607 35.9796 83.4607 34.3812V30.2512C83.4607 23.6014 77.9366 18.1975 71.144 18.1975H66.9293C65.2925 18.1975 63.7375 17.5526 62.5918 16.4309L59.6047 13.5107C54.7762 8.82379 46.9606 8.82379 42.173 13.5467L39.2268 16.4309C38.081 17.5526 36.5261 18.1975 34.8893 18.1975H30.6746C23.882 18.1975 18.3579 23.6014 18.3579 30.2512V34.3372C18.3579 35.9796 17.7032 37.5018 16.5574 38.6235L13.5703 41.5517C8.78271 46.2747 8.82363 53.9299 13.6112 58.6128L16.5574 61.4569C17.7032 62.6186 18.3579 64.1409 18.3579 65.7472V69.8692C18.3579 76.519 23.882 81.9309 30.6746 81.9309H34.8893C36.5261 81.9309 38.081 82.5679 39.2268 83.6895L42.2139 86.6178C44.6282 88.9412 47.779 90.0989 50.9298 90.0989C54.0806 90.0989 57.2313 88.9412 59.6456 86.5737L62.5918 83.6895C63.7375 82.5679 65.2925 81.9309 66.9293 81.9309H71.144C77.9366 81.9309 83.4607 76.519 83.4607 69.8692V65.7472C83.4607 64.1409 84.1154 62.6186 85.2612 61.497L88.1665 58.6528C88.2074 58.6128 88.2483 58.5767 88.2892 58.5326C90.5807 56.2533 91.8492 53.2048 91.8083 50.0001C91.8083 46.7954 90.5398 43.751 88.2074 41.5077Z" fill="url(#paint0_linear)"/>
<g opacity="0.5" filter="url(#filter0_f)">
<path d="M75.6021 44.394L73.6514 42.4844C72.8928 41.7418 72.4594 40.7339 72.4594 39.6757V36.9413C72.4594 32.5385 68.8019 28.9607 64.3046 28.9607H61.5141C60.4304 28.9607 59.4009 28.5337 58.6423 27.791L56.6646 25.8576C53.4677 22.7544 48.2931 22.7544 45.1233 25.8814L43.1726 27.791C42.4141 28.5337 41.3846 28.9607 40.3009 28.9607H37.5104C33.013 28.9607 29.3556 32.5385 29.3556 36.9413V39.6465C29.3556 40.734 28.9221 41.7418 28.1635 42.4844L26.1858 44.4232C23.016 47.5502 23.0431 52.6186 26.2129 55.7191L28.1635 57.6022C28.9221 58.3713 29.3556 59.3792 29.3556 60.4427V63.1719C29.3556 67.5746 33.013 71.1577 37.5104 71.1577H40.3009C41.3846 71.1577 42.4141 71.5794 43.1726 72.3221L45.1504 74.2609C46.7488 75.7992 48.8349 76.5656 50.921 76.5656C53.0071 76.5656 55.0932 75.7991 56.6917 74.2317L58.6423 72.3221C59.4009 71.5794 60.4304 71.1577 61.5141 71.1577H64.3046C68.8019 71.1577 72.4594 67.5746 72.4594 63.1719V60.4427C72.4594 59.3792 72.8928 58.3713 73.6514 57.6287L75.575 55.7456C75.6021 55.7191 75.6292 55.6952 75.6562 55.666C77.1734 54.1569 78.0133 52.1386 77.9862 50.0168C77.9862 47.895 77.1463 45.8793 75.6021 44.394Z" fill="#E46800"/>
</g>
<g filter="url(#filter1_b)">
<mask id="path-3-outside-1" maskUnits="userSpaceOnUse" x="23.1907" y="22.9011" width="84" height="83" fill="black">
<rect fill="white" x="23.1907" y="22.9011" width="84" height="83"/>
<path d="M102.398 55.4088L99.4519 52.5246C98.3062 51.4029 97.6515 49.8807 97.6515 48.2824V44.1523C97.6515 37.5026 92.1273 32.0986 85.3347 32.0986H81.12C79.4832 32.0986 77.9283 31.4537 76.7825 30.3321L73.7954 27.4118C68.9669 22.7249 61.1513 22.7249 56.3637 27.4478L53.4175 30.3321C52.2718 31.4537 50.7168 32.0986 49.0801 32.0986H44.8654C38.0727 32.0986 32.5486 37.5026 32.5486 44.1523V48.2383C32.5486 49.8807 31.8939 51.4029 30.7481 52.5246L27.761 55.4529C22.9734 60.1758 23.0144 67.831 27.8019 72.5139L30.7481 75.358C31.8939 76.5197 32.5486 78.042 32.5486 79.6483V83.7704C32.5486 90.4201 38.0727 95.8321 44.8654 95.8321H49.0801C50.7168 95.8321 52.2718 96.469 53.4175 97.5906L56.4046 100.519C58.8189 102.842 61.9697 104 65.1205 104C68.2713 104 71.4221 102.842 73.8363 100.475L76.7825 97.5906C77.9283 96.469 79.4832 95.8321 81.12 95.8321H85.3347C92.1273 95.8321 97.6515 90.4201 97.6515 83.7704V79.6483C97.6515 78.042 98.3062 76.5198 99.4519 75.3981L102.357 72.5539C102.398 72.5139 102.439 72.4778 102.48 72.4338C104.771 70.1544 106.04 67.106 105.999 63.9013C105.999 60.6966 104.731 57.6521 102.398 55.4088Z"/>
</mask>
<path d="M102.398 55.4088L99.4519 52.5246C98.3062 51.4029 97.6515 49.8807 97.6515 48.2824V44.1523C97.6515 37.5026 92.1273 32.0986 85.3347 32.0986H81.12C79.4832 32.0986 77.9283 31.4537 76.7825 30.3321L73.7954 27.4118C68.9669 22.7249 61.1513 22.7249 56.3637 27.4478L53.4175 30.3321C52.2718 31.4537 50.7168 32.0986 49.0801 32.0986H44.8654C38.0727 32.0986 32.5486 37.5026 32.5486 44.1523V48.2383C32.5486 49.8807 31.8939 51.4029 30.7481 52.5246L27.761 55.4529C22.9734 60.1758 23.0144 67.831 27.8019 72.5139L30.7481 75.358C31.8939 76.5197 32.5486 78.042 32.5486 79.6483V83.7704C32.5486 90.4201 38.0727 95.8321 44.8654 95.8321H49.0801C50.7168 95.8321 52.2718 96.469 53.4175 97.5906L56.4046 100.519C58.8189 102.842 61.9697 104 65.1205 104C68.2713 104 71.4221 102.842 73.8363 100.475L76.7825 97.5906C77.9283 96.469 79.4832 95.8321 81.12 95.8321H85.3347C92.1273 95.8321 97.6515 90.4201 97.6515 83.7704V79.6483C97.6515 78.042 98.3062 76.5198 99.4519 75.3981L102.357 72.5539C102.398 72.5139 102.439 72.4778 102.48 72.4338C104.771 70.1544 106.04 67.106 105.999 63.9013C105.999 60.6966 104.731 57.6521 102.398 55.4088Z" fill="#FFCBB9" fill-opacity="0.35"/>
<path d="M99.4519 52.5246L100.151 51.81V51.81L99.4519 52.5246ZM76.7825 30.3321L77.4821 29.6175L77.4816 29.617L76.7825 30.3321ZM73.7954 27.4118L74.4945 26.6967L74.4919 26.6942L73.7954 27.4118ZM56.3637 27.4478L57.0633 28.1624L57.066 28.1597L56.3637 27.4478ZM53.4175 30.3321L54.1171 31.0466L53.4175 30.3321ZM30.7481 52.5246L30.0486 51.81L30.0481 51.8105L30.7481 52.5246ZM27.761 55.4529L27.061 54.7388L27.0587 54.741L27.761 55.4529ZM27.8019 72.5139L27.1027 73.2288L27.1074 73.2333L27.8019 72.5139ZM30.7481 75.358L31.4601 74.6558C31.4544 74.65 31.4486 74.6443 31.4427 74.6386L30.7481 75.358ZM53.4175 97.5906L54.1176 96.8765L54.1171 96.876L53.4175 97.5906ZM56.4046 100.519L55.7046 101.233L55.7112 101.239L56.4046 100.519ZM73.8363 100.475L73.1368 99.7603L73.1362 99.7609L73.8363 100.475ZM76.7825 97.5906L77.4821 98.3052L76.7825 97.5906ZM99.4519 75.3981L100.151 76.1127L99.4519 75.3981ZM102.357 72.5539L101.658 71.8394L102.357 72.5539ZM102.48 72.4338L101.775 71.7248C101.765 71.7341 101.756 71.7436 101.747 71.7533L102.48 72.4338ZM105.999 63.9013H104.999L104.999 63.914L105.999 63.9013ZM103.098 54.6942L100.151 51.81L98.7524 53.2392L101.699 56.1234L103.098 54.6942ZM100.151 51.81C99.1931 50.8718 98.6515 49.6051 98.6515 48.2824H96.6515C96.6515 50.1563 97.4193 51.9341 98.7524 53.2392L100.151 51.81ZM98.6515 48.2824V44.1523H96.6515V48.2824H98.6515ZM98.6515 44.1523C98.6515 36.9299 92.659 31.0986 85.3347 31.0986V33.0986C91.5956 33.0986 96.6515 38.0752 96.6515 44.1523H98.6515ZM85.3347 31.0986H81.12V33.0986H85.3347V31.0986ZM81.12 31.0986C79.7463 31.0986 78.4421 30.5573 77.4821 29.6175L76.083 31.0466C77.4145 32.3502 79.2201 33.0986 81.12 33.0986V31.0986ZM77.4816 29.617L74.4945 26.6967L73.0964 28.1268L76.0835 31.0471L77.4816 29.617ZM74.4919 26.6942C69.2767 21.632 60.8396 21.6277 55.6614 26.7359L57.066 28.1597C61.463 23.8222 68.6571 23.8178 73.0989 28.1293L74.4919 26.6942ZM55.6642 26.7333L52.718 29.6175L54.1171 31.0466L57.0633 28.1624L55.6642 26.7333ZM52.718 29.6175C51.758 30.5573 50.4538 31.0986 49.0801 31.0986V33.0986C50.9799 33.0986 52.7856 32.3502 54.1171 31.0466L52.718 29.6175ZM49.0801 31.0986H44.8654V33.0986H49.0801V31.0986ZM44.8654 31.0986C37.541 31.0986 31.5486 36.9299 31.5486 44.1523H33.5486C33.5486 38.0752 38.6044 33.0986 44.8654 33.0986V31.0986ZM31.5486 44.1523V48.2383H33.5486V44.1523H31.5486ZM31.5486 48.2383C31.5486 49.6091 31.0041 50.8745 30.0486 51.81L31.4477 53.2392C32.7836 51.9313 33.5486 50.1523 33.5486 48.2383H31.5486ZM30.0481 51.8105L27.061 54.7388L28.4611 56.167L31.4482 53.2387L30.0481 51.8105ZM27.0587 54.741C21.8714 59.8582 21.9169 68.1564 27.1027 73.2288L28.5012 71.799C24.1118 67.5056 24.0755 60.4934 28.4633 56.1648L27.0587 54.741ZM27.1074 73.2333L30.0536 76.0775L31.4427 74.6386L28.4965 71.7944L27.1074 73.2333ZM30.0362 76.0602C31.008 77.0457 31.5486 78.3196 31.5486 79.6483H33.5486C33.5486 77.7643 32.7797 75.9938 31.4601 74.6558L30.0362 76.0602ZM31.5486 79.6483V83.7704H33.5486V79.6483H31.5486ZM31.5486 83.7704C31.5486 90.9919 37.5402 96.8321 44.8654 96.8321V94.8321C38.6053 94.8321 33.5486 89.8483 33.5486 83.7704H31.5486ZM44.8654 96.8321H49.0801V94.8321H44.8654V96.8321ZM49.0801 96.8321C50.4571 96.8321 51.7604 97.3678 52.718 98.3052L54.1171 96.876C52.7832 95.5702 50.9766 94.8321 49.0801 94.8321V96.8321ZM52.7175 98.3047L55.7046 101.233L57.1047 99.8048L54.1176 96.8765L52.7175 98.3047ZM55.7112 101.239C58.3225 103.752 61.7264 105 65.1205 105V103C62.213 103 59.3153 101.932 57.0981 99.7984L55.7112 101.239ZM65.1205 105C68.5157 105 71.9232 103.752 74.5365 101.189L73.1362 99.7609C70.921 101.933 68.0269 103 65.1205 103V105ZM74.5359 101.189L77.4821 98.3052L76.083 96.876L73.1368 99.7603L74.5359 101.189ZM77.4821 98.3052C78.4397 97.3678 79.7429 96.8321 81.12 96.8321V94.8321C79.2235 94.8321 77.4169 95.5702 76.083 96.876L77.4821 98.3052ZM81.12 96.8321H85.3347V94.8321H81.12V96.8321ZM85.3347 96.8321C92.6599 96.8321 98.6515 90.9919 98.6515 83.7704H96.6515C96.6515 89.8483 91.5948 94.8321 85.3347 94.8321V96.8321ZM98.6515 83.7704V79.6483H96.6515V83.7704H98.6515ZM98.6515 79.6483C98.6515 78.3168 99.1936 77.0504 100.151 76.1127L98.7524 74.6835C97.4188 75.9891 96.6515 77.7671 96.6515 79.6483H98.6515ZM100.151 76.1127L103.057 73.2685L101.658 71.8394L98.7524 74.6835L100.151 76.1127ZM103.057 73.2685C103.072 73.2537 103.075 73.2508 103.109 73.2188C103.135 73.1939 103.172 73.1579 103.213 73.1142L101.747 71.7533C101.747 71.7532 101.746 71.7544 101.743 71.7574C101.74 71.7606 101.735 71.765 101.728 71.772C101.719 71.7804 101.713 71.786 101.7 71.7989C101.688 71.8097 101.674 71.8238 101.658 71.8394L103.057 73.2685ZM103.185 73.1427C105.664 70.6771 107.043 67.37 106.999 63.8885L104.999 63.914C105.036 66.8419 103.879 69.6318 101.775 71.7248L103.185 73.1427ZM106.999 63.9013C106.999 60.429 105.623 57.1229 103.091 54.6881L101.705 56.1296C103.838 58.1813 104.999 60.9641 104.999 63.9013H106.999Z" fill="url(#paint1_linear)" mask="url(#path-3-outside-1)"/>
</g>
<g filter="url(#filter2_bd)">
<mask id="path-5-inside-2" fill="white">
<path fill-rule="evenodd" clip-rule="evenodd" d="M57.1002 76.7196C56.4454 77.4006 55.5452 77.7612 54.5632 77.7612C53.622 77.7612 52.7218 77.4006 52.0671 76.7196C50.6758 75.3576 50.6758 73.1143 52.0671 71.7523L73.0997 51.1622C74.4909 49.8042 76.7415 49.8042 78.1328 51.1622C79.524 52.5242 79.524 54.7715 78.1328 56.1335L57.1002 76.7196ZM75.6366 77.7612C73.6316 77.7612 72.0357 76.199 72.0357 74.2361C72.0357 72.3173 73.6316 70.751 75.6366 70.751C77.6008 70.751 79.1966 72.3173 79.1966 74.2361C79.1966 76.199 77.6008 77.7612 75.6366 77.7612ZM58.164 53.6453C58.164 51.7225 56.5682 50.1602 54.604 50.1602C52.6399 50.1602 51.0031 51.7225 51.0031 53.6453C51.0031 55.6122 52.6399 57.1704 54.604 57.1704C56.5682 57.1704 58.164 55.6122 58.164 53.6453Z"/>
</mask>
<path fill-rule="evenodd" clip-rule="evenodd" d="M57.1002 76.7196C56.4454 77.4006 55.5452 77.7612 54.5632 77.7612C53.622 77.7612 52.7218 77.4006 52.0671 76.7196C50.6758 75.3576 50.6758 73.1143 52.0671 71.7523L73.0997 51.1622C74.4909 49.8042 76.7415 49.8042 78.1328 51.1622C79.524 52.5242 79.524 54.7715 78.1328 56.1335L57.1002 76.7196ZM75.6366 77.7612C73.6316 77.7612 72.0357 76.199 72.0357 74.2361C72.0357 72.3173 73.6316 70.751 75.6366 70.751C77.6008 70.751 79.1966 72.3173 79.1966 74.2361C79.1966 76.199 77.6008 77.7612 75.6366 77.7612ZM58.164 53.6453C58.164 51.7225 56.5682 50.1602 54.604 50.1602C52.6399 50.1602 51.0031 51.7225 51.0031 53.6453C51.0031 55.6122 52.6399 57.1704 54.604 57.1704C56.5682 57.1704 58.164 55.6122 58.164 53.6453Z" fill="url(#paint2_linear)"/>
<path d="M57.1002 76.7196L56.8202 76.4336L56.8118 76.4424L57.1002 76.7196ZM52.0671 76.7196L52.3556 76.4423L52.3469 76.4338L52.0671 76.7196ZM52.0671 71.7523L52.3469 72.0382H52.3469L52.0671 71.7523ZM73.0997 51.1622L72.8203 50.8759L72.8198 50.8763L73.0997 51.1622ZM78.1328 51.1622L78.4126 50.8763L78.4122 50.8759L78.1328 51.1622ZM78.1328 56.1335L78.4125 56.4193L78.4126 56.4193L78.1328 56.1335ZM54.5632 78.1612C55.645 78.1612 56.6524 77.7625 57.3885 76.9969L56.8118 76.4424C56.2385 77.0387 55.4454 77.3612 54.5632 77.3612V78.1612ZM51.7787 76.9969C52.5132 77.7608 53.5197 78.1612 54.5632 78.1612V77.3612C53.7243 77.3612 52.9303 77.0404 52.3554 76.4424L51.7787 76.9969ZM51.7872 71.4665C50.2357 72.9854 50.2357 75.4866 51.7872 77.0055L52.3469 76.4338C51.1159 75.2287 51.1159 73.2433 52.3469 72.0382L51.7872 71.4665ZM72.8198 50.8763L51.7872 71.4665L52.3469 72.0382L73.3795 51.448L72.8198 50.8763ZM78.4122 50.8759C76.8655 49.3663 74.3669 49.3663 72.8203 50.8759L73.3791 51.4484C74.6149 50.2421 76.6175 50.2421 77.8534 51.4484L78.4122 50.8759ZM78.4126 56.4193C79.9641 54.9004 79.9641 52.3952 78.4126 50.8763L77.8529 51.448C79.084 52.6531 79.084 54.6425 77.8529 55.8476L78.4126 56.4193ZM57.38 77.0055L78.4125 56.4193L77.853 55.8476L56.8204 76.4338L57.38 77.0055ZM71.6357 74.2361C71.6357 76.4278 73.4187 78.1612 75.6366 78.1612V77.3612C73.8444 77.3612 72.4357 75.9701 72.4357 74.2361H71.6357ZM75.6366 70.351C73.4215 70.351 71.6357 72.0857 71.6357 74.2361H72.4357C72.4357 72.5488 73.8417 71.151 75.6366 71.151V70.351ZM79.5966 74.2361C79.5966 72.0887 77.8139 70.351 75.6366 70.351V71.151C77.3876 71.151 78.7966 72.5459 78.7966 74.2361H79.5966ZM75.6366 78.1612C77.8166 78.1612 79.5966 76.4249 79.5966 74.2361H78.7966C78.7966 75.973 77.3849 77.3612 75.6366 77.3612V78.1612ZM54.604 50.5602C56.3553 50.5602 57.764 51.9513 57.764 53.6453H58.564C58.564 51.4936 56.781 49.7602 54.604 49.7602V50.5602ZM51.4031 53.6453C51.4031 51.9572 52.8467 50.5602 54.604 50.5602V49.7602C52.4331 49.7602 50.6031 51.4877 50.6031 53.6453H51.4031ZM54.604 56.7704C52.8495 56.7704 51.4031 55.3801 51.4031 53.6453H50.6031C50.6031 55.8443 52.4303 57.5704 54.604 57.5704V56.7704ZM57.764 53.6453C57.764 55.3859 56.3526 56.7704 54.604 56.7704V57.5704C56.7837 57.5704 58.564 55.8384 58.564 53.6453H57.764Z" fill="url(#paint3_linear)" mask="url(#path-5-inside-2)"/>
</g>
<defs>
<filter id="filter0_f" x="0.82196" y="0.533203" width="100.165" height="99.0324" filterUnits="userSpaceOnUse" color-interpolation-filters="sRGB">
<feFlood flood-opacity="0" result="BackgroundImageFix"/>
<feBlend mode="normal" in="SourceGraphic" in2="BackgroundImageFix" result="shape"/>
<feGaussianBlur stdDeviation="11.5" result="effect1_foregroundBlur"/>
</filter>
<filter id="filter1_b" x="-0.809265" y="-1.09888" width="131.809" height="130.099" filterUnits="userSpaceOnUse" color-interpolation-filters="sRGB">
<feFlood flood-opacity="0" result="BackgroundImageFix"/>
<feGaussianBlur in="BackgroundImage" stdDeviation="12"/>
<feComposite in2="SourceAlpha" operator="in" result="effect1_backgroundBlur"/>
<feBlend mode="normal" in="SourceGraphic" in2="effect1_backgroundBlur" result="shape"/>
</filter>
<filter id="filter2_bd" x="36.0031" y="35.1437" width="58.1935" height="57.6176" filterUnits="userSpaceOnUse" color-interpolation-filters="sRGB">
<feFlood flood-opacity="0" result="BackgroundImageFix"/>
<feGaussianBlur in="BackgroundImage" stdDeviation="7.5"/>
<feComposite in2="SourceAlpha" operator="in" result="effect1_backgroundBlur"/>
<feColorMatrix in="SourceAlpha" type="matrix" values="0 0 0 0 0 0 0 0 0 0 0 0 0 0 0 0 0 0 127 0"/>
<feOffset dx="5" dy="5"/>
<feGaussianBlur stdDeviation="5"/>
<feColorMatrix type="matrix" values="0 0 0 0 1 0 0 0 0 0.580392 0 0 0 0 0.247059 0 0 0 0.5 0"/>
<feBlend mode="normal" in2="effect1_backgroundBlur" result="effect2_dropShadow"/>
<feBlend mode="normal" in="SourceGraphic" in2="effect2_dropShadow" result="shape"/>
</filter>
<linearGradient id="paint0_linear" x1="50.9046" y1="10" x2="50.9046" y2="90.0989" gradientUnits="userSpaceOnUse">
<stop stop-color="#FFB37F"/>
<stop offset="1" stop-color="#FF7B0D"/>
</linearGradient>
<linearGradient id="paint1_linear" x1="23.9521" y1="23.3564" x2="87.7833" y2="97.8921" gradientUnits="userSpaceOnUse">
<stop stop-color="white" stop-opacity="0.4"/>
<stop offset="1" stop-color="white" stop-opacity="0"/>
</linearGradient>
<linearGradient id="paint2_linear" x1="77.1977" y1="55.1309" x2="45.7942" y2="56.1761" gradientUnits="userSpaceOnUse">
<stop stop-color="white"/>
<stop offset="1" stop-color="white" stop-opacity="0.2"/>
</linearGradient>
<linearGradient id="paint3_linear" x1="55.4911" y1="53.3612" x2="73.0281" y2="75.5342" gradientUnits="userSpaceOnUse">
<stop stop-color="white" stop-opacity="0.25"/>
<stop offset="1" stop-color="white" stop-opacity="0"/>
</linearGradient>
</defs>
</svg>
