<svg width="99" height="95" viewBox="0 0 99 95" fill="none" xmlns="http://www.w3.org/2000/svg">
<path d="M83.7694 11.194L57.2263 4.08182C47.5984 1.50204 40.4822 5.63737 37.8939 15.2969L29.1278 48.0126C26.4971 57.8305 30.6262 64.8432 40.2541 67.423L66.7972 74.5352C76.5802 77.1566 83.5042 73.1055 86.1349 63.2876L94.901 30.5719C97.4893 20.9124 93.5525 13.8154 83.7694 11.194Z" fill="url(#paint0_linear)"/>
<g opacity="0.5" filter="url(#filter0_f)">
<path d="M76.8342 20.153L58.7501 15.3074C52.1906 13.5497 47.3422 16.3672 45.5788 22.9483L39.6064 45.2378C37.814 51.9268 40.6272 56.7047 47.1868 58.4623L65.2709 63.3079C71.9362 65.0939 76.6535 62.3339 78.4458 55.6448L84.4183 33.3553C86.1817 26.7742 83.4995 21.9389 76.8342 20.153Z" fill="#39B93A"/>
</g>
<g filter="url(#filter1_b)">
<mask id="path-3-outside-1" maskUnits="userSpaceOnUse" x="0" y="16.5535" width="78" height="78" fill="black">
<rect fill="white" y="16.5535" width="78" height="78"/>
<path d="M55.0969 17.5535H22.3898C9.60119 17.5535 1 26.5319 1 39.8864V70.7073C1 84.024 9.60119 93.0025 22.3898 93.0025H55.0969C67.8855 93.0025 76.449 84.024 76.449 70.7073V39.8864C76.449 26.5319 67.8855 17.5535 55.0969 17.5535Z"/>
</mask>
<path d="M55.0969 17.5535H22.3898C9.60119 17.5535 1 26.5319 1 39.8864V70.7073C1 84.024 9.60119 93.0025 22.3898 93.0025H55.0969C67.8855 93.0025 76.449 84.024 76.449 70.7073V39.8864C76.449 26.5319 67.8855 17.5535 55.0969 17.5535Z" fill="#72DC60" fill-opacity="0.35"/>
<path d="M55.0969 18.5535C55.6492 18.5535 56.0969 18.1058 56.0969 17.5535C56.0969 17.0012 55.6492 16.5535 55.0969 16.5535V18.5535ZM55.0969 16.5535C54.5447 16.5535 54.0969 17.0012 54.0969 17.5535C54.0969 18.1058 54.5447 18.5535 55.0969 18.5535V16.5535ZM55.0969 16.5535H22.3898V18.5535H55.0969V16.5535ZM22.3898 16.5535C15.7527 16.5535 10.1342 18.8888 6.177 23.0203C2.22336 27.148 0 32.9924 0 39.8864H2C2 33.4259 4.07724 28.1038 7.62134 24.4037C11.1619 20.7073 16.2383 18.5535 22.3898 18.5535V16.5535ZM0 39.8864V70.7073H2V39.8864H0ZM0 70.7073C0 77.5832 2.22381 83.4181 6.17742 87.5408C10.1345 91.6672 15.7528 94.0025 22.3898 94.0025V92.0025C16.2382 92.0025 11.1616 89.8486 7.62092 86.1565C4.07679 82.4608 2 77.1482 2 70.7073H0ZM22.3898 94.0025H55.0969V92.0025H22.3898V94.0025ZM55.0969 94.0025C61.7342 94.0025 67.3435 91.667 71.2913 87.5399C75.2354 83.4168 77.449 77.5819 77.449 70.7073H75.449C75.449 77.1494 73.3809 82.4622 69.8461 86.1574C66.3151 89.8487 61.2483 92.0025 55.0969 92.0025V94.0025ZM77.449 70.7073V39.8864H75.449V70.7073H77.449ZM77.449 39.8864C77.449 32.9936 75.2358 27.1493 71.2917 23.0212C67.3438 18.889 61.7342 16.5535 55.0969 16.5535V18.5535C61.2483 18.5535 66.3148 20.7072 69.8457 24.4028C73.3804 28.1025 75.449 33.4247 75.449 39.8864H77.449Z" fill="url(#paint1_linear)" mask="url(#path-3-outside-1)"/>
</g>
<g filter="url(#filter2_bd)">
<mask id="path-5-inside-2" fill="white">
<path d="M34.2466 67.5307C33.4016 67.5307 32.5565 67.21 31.9114 66.5649L22.9594 57.6129C21.6692 56.3227 21.6692 54.2328 22.9594 52.9464C24.2496 51.6562 26.3358 51.6524 27.6259 52.9426L34.2466 59.5633L49.8193 43.9906C51.1094 42.7004 53.1956 42.7004 54.4858 43.9906C55.776 45.2808 55.776 47.3707 54.4858 48.6609L36.5817 66.5649C35.9366 67.21 35.0916 67.5307 34.2466 67.5307Z"/>
</mask>
<path d="M34.2466 67.5307C33.4016 67.5307 32.5565 67.21 31.9114 66.5649L22.9594 57.6129C21.6692 56.3227 21.6692 54.2328 22.9594 52.9464C24.2496 51.6562 26.3358 51.6524 27.6259 52.9426L34.2466 59.5633L49.8193 43.9906C51.1094 42.7004 53.1956 42.7004 54.4858 43.9906C55.776 45.2808 55.776 47.3707 54.4858 48.6609L36.5817 66.5649C35.9366 67.21 35.0916 67.5307 34.2466 67.5307Z" fill="url(#paint2_linear)"/>
<path d="M22.9594 52.9464L23.1006 53.088L23.1008 53.0878L22.9594 52.9464ZM34.2466 59.5633L34.1052 59.7047L34.2466 59.8461L34.388 59.7047L34.2466 59.5633ZM54.4858 48.6609L54.3444 48.5195L54.4858 48.6609ZM36.5817 66.5649L36.7232 66.7064L36.5817 66.5649ZM34.2466 67.3307C33.4522 67.3307 32.6588 67.0294 32.0529 66.4235L31.77 66.7064C32.4543 67.3906 33.3509 67.7307 34.2466 67.7307V67.3307ZM32.0529 66.4235L23.1008 57.4715L22.818 57.7543L31.77 66.7064L32.0529 66.4235ZM23.1008 57.4715C21.8886 56.2593 21.8889 54.2962 23.1006 53.088L22.8182 52.8048C21.4495 54.1694 21.4498 56.3862 22.818 57.7543L23.1008 57.4715ZM23.1008 53.0878C24.3132 51.8754 26.2727 51.8723 27.4845 53.084L27.7674 52.8012C26.3988 51.4326 24.186 51.437 22.818 52.805L23.1008 53.0878ZM27.4845 53.084L34.1052 59.7047L34.388 59.4218L27.7674 52.8012L27.4845 53.084ZM34.388 59.7047L49.9607 44.132L49.6778 43.8492L34.1052 59.4218L34.388 59.7047ZM49.9607 44.132C51.1728 42.9199 53.1323 42.9199 54.3444 44.132L54.6272 43.8492C53.2589 42.4809 51.0461 42.4809 49.6778 43.8492L49.9607 44.132ZM54.3444 44.132C55.5564 45.3441 55.5564 47.3074 54.3444 48.5195L54.6272 48.8023C55.9955 47.434 55.9955 45.2174 54.6272 43.8492L54.3444 44.132ZM54.3444 48.5195L36.4403 66.4235L36.7232 66.7064L54.6272 48.8023L54.3444 48.5195ZM36.4403 66.4235C35.8344 67.0294 35.041 67.3307 34.2466 67.3307V67.7307C35.1422 67.7307 36.0389 67.3906 36.7232 66.7064L36.4403 66.4235Z" fill="url(#paint3_linear)" fill-opacity="0.5" mask="url(#path-5-inside-2)"/>
</g>
<defs>
<filter id="filter0_f" x="25.0767" y="0.795044" width="73.8698" height="77.0439" filterUnits="userSpaceOnUse" color-interpolation-filters="sRGB">
<feFlood flood-opacity="0" result="BackgroundImageFix"/>
<feBlend mode="normal" in="SourceGraphic" in2="BackgroundImageFix" result="shape"/>
<feGaussianBlur stdDeviation="7" result="effect1_foregroundBlur"/>
</filter>
<filter id="filter1_b" x="-24" y="-7.44653" width="125.449" height="125.449" filterUnits="userSpaceOnUse" color-interpolation-filters="sRGB">
<feFlood flood-opacity="0" result="BackgroundImageFix"/>
<feGaussianBlur in="BackgroundImage" stdDeviation="12"/>
<feComposite in2="SourceAlpha" operator="in" result="effect1_backgroundBlur"/>
<feBlend mode="normal" in="SourceGraphic" in2="effect1_backgroundBlur" result="shape"/>
</filter>
<filter id="filter2_bd" x="6.99178" y="28.0229" width="63.4616" height="54.5077" filterUnits="userSpaceOnUse" color-interpolation-filters="sRGB">
<feFlood flood-opacity="0" result="BackgroundImageFix"/>
<feGaussianBlur in="BackgroundImage" stdDeviation="7.5"/>
<feComposite in2="SourceAlpha" operator="in" result="effect1_backgroundBlur"/>
<feColorMatrix in="SourceAlpha" type="matrix" values="0 0 0 0 0 0 0 0 0 0 0 0 0 0 0 0 0 0 127 0"/>
<feOffset dx="5" dy="5"/>
<feGaussianBlur stdDeviation="5"/>
<feColorMatrix type="matrix" values="0 0 0 0 0.454902 0 0 0 0 0.870588 0 0 0 0 0.376471 0 0 0 0.5 0"/>
<feBlend mode="normal" in2="effect1_backgroundBlur" result="effect2_dropShadow"/>
<feBlend mode="normal" in="SourceGraphic" in2="effect2_dropShadow" result="shape"/>
</filter>
<linearGradient id="paint0_linear" x1="98.9998" y1="15.275" x2="41.1144" y2="50.7025" gradientUnits="userSpaceOnUse">
<stop stop-color="#9BF763"/>
<stop offset="1" stop-color="#26AB5B"/>
</linearGradient>
<linearGradient id="paint1_linear" x1="13.0103" y1="26.3434" x2="61.1387" y2="85.9516" gradientUnits="userSpaceOnUse">
<stop stop-color="white" stop-opacity="0.25"/>
<stop offset="1" stop-color="white" stop-opacity="0"/>
</linearGradient>
<linearGradient id="paint2_linear" x1="53.081" y1="47.4486" x2="15.8421" y2="49.1063" gradientUnits="userSpaceOnUse">
<stop stop-color="white"/>
<stop offset="1" stop-color="white" stop-opacity="0.2"/>
</linearGradient>
<linearGradient id="paint3_linear" x1="25.5963" y1="51.2441" x2="54.0091" y2="51.4583" gradientUnits="userSpaceOnUse">
<stop stop-color="white"/>
<stop offset="1" stop-color="white" stop-opacity="0"/>
</linearGradient>
</defs>
</svg>
