<svg width="25" height="24" viewBox="0 0 25 24" fill="none" xmlns="http://www.w3.org/2000/svg">
<g clip-path="url(#clip0)">
<path d="M6.97567 19.8842C7.97911 19.8842 8.79364 20.6987 8.79364 21.7021C8.79364 22.7057 7.97897 23.5189 6.97567 23.5189C5.97223 23.5189 5.1589 22.7056 5.1589 21.7021C5.1589 20.6988 5.97209 19.8842 6.97567 19.8842ZM20.4783 19.8842C21.4818 19.8842 22.2963 20.6987 22.2963 21.7021C22.2963 22.7057 21.4816 23.5189 20.4783 23.5189C19.475 23.5189 18.6603 22.7057 18.6603 21.7021C18.6603 20.6987 19.4749 19.8842 20.4783 19.8842ZM1.40063 0.000599935L1.52237 0.0133315L4.01832 0.445324C4.37706 0.507412 4.65831 0.777845 4.74044 1.12382L4.76167 1.25685L5.04334 4.61887H21.9593C23.427 4.61887 24.5669 5.86768 24.4621 7.30654L24.4424 7.48732L23.3036 15.3573C23.0941 16.7994 21.9037 17.8851 20.4682 17.9768L20.271 17.983H7.17678C5.64945 17.983 4.3671 16.8622 4.1463 15.3713L4.12359 15.1748L3.02617 2.10011L1.2154 1.78693C0.766445 1.70923 0.453155 1.31139 0.46935 0.868382L0.482081 0.746647C0.559785 0.297695 0.957621 -0.0155952 1.40063 0.000599935ZM21.9593 6.41884H5.19454L5.91729 15.0247C5.96805 15.6332 6.44335 16.1104 7.03766 16.1755L7.17678 16.1831H20.271C20.8507 16.1831 21.3492 15.79 21.4937 15.2397L21.5222 15.099L22.661 7.2296C22.7177 6.83726 22.444 6.48295 22.0651 6.42662L21.9593 6.41884ZM18.3468 9.05399C18.8438 9.05399 19.2468 9.45693 19.2468 9.95398C19.2468 10.4096 18.9082 10.7862 18.4689 10.8457L18.3468 10.854H15.0192C14.5222 10.854 14.1193 10.451 14.1193 9.95398C14.1193 9.49835 14.4578 9.1218 14.8971 9.06221L15.0192 9.05399H18.3468Z" fill="#FAFAF9"/>
</g>
<defs>
<clipPath id="clip0">
<rect width="24" height="24" fill="white" transform="translate(0.46875)"/>
</clipPath>
</defs>
</svg>
