<svg width="20" height="20" viewBox="0 0 20 20" fill="none" xmlns="http://www.w3.org/2000/svg">
<path d="M5.39204 1.66819L5.41422 1.66962C5.8508 1.7058 6.22998 1.92276 6.57611 2.26095C7.2339 2.9034 8.64639 4.77814 8.75303 5.28834C8.87105 5.85751 8.74486 6.22718 8.36868 6.88112L8.2775 7.04228C8.10487 7.35757 8.07848 7.48776 8.13193 7.63683C8.95329 9.64701 10.3549 11.0484 12.3421 11.8601C12.5303 11.9282 12.6724 11.8892 13.0701 11.661L13.2777 11.5436C13.8368 11.2369 14.1912 11.14 14.7138 11.2488C15.2222 11.3554 17.098 12.7688 17.7395 13.4257C18.0772 13.7715 18.2946 14.1514 18.3325 14.6167C18.3724 15.7477 16.9923 17.3402 16.1504 17.819C15.193 18.5039 13.9781 18.4925 12.6158 17.8585C9.05341 16.3761 3.60417 10.9617 2.15199 7.40368L2.06506 7.20466C1.51365 5.88674 1.5256 4.74813 2.15749 3.88973C2.73407 2.93488 4.28863 1.61716 5.39204 1.66819ZM5.32251 2.88591L5.25122 2.89049C4.68489 2.96573 3.54919 3.94348 3.17098 4.56537L3.10564 4.6626C2.77982 5.19345 2.81759 5.92247 3.27121 6.92066L3.3579 7.1236C4.82084 10.4069 9.8861 15.4019 13.107 16.7427L13.2844 16.8216C14.2162 17.2166 14.9217 17.1991 15.4928 16.7941L15.535 16.7669C15.7118 16.6441 16.1193 16.2738 16.4332 15.9116C16.8741 15.4029 17.1238 14.9367 17.1158 14.6886C17.107 14.5824 17.0251 14.4393 16.8673 14.2778C16.3904 13.7894 14.6562 12.4827 14.4645 12.4425C14.2832 12.4047 14.1345 12.4555 13.7277 12.6895L13.523 12.8045C12.9237 13.1277 12.5012 13.2145 11.9043 12.9978C9.59093 12.0536 7.94861 10.4116 6.99441 8.07493C6.76839 7.45017 6.89006 7.00814 7.2831 6.32311L7.37674 6.15835C7.5553 5.83596 7.59308 5.69918 7.55944 5.53692C7.51916 5.3442 6.21325 3.61093 5.72424 3.13332C5.56231 2.9751 5.42002 2.89369 5.31353 2.88487L5.32251 2.88591Z" fill="#64748B"/>
</svg>
