<svg width="18" height="18" viewBox="0 0 18 18" fill="none" xmlns="http://www.w3.org/2000/svg">
<path d="M2.25 8.99992C2.25 8.68465 2.48085 8.4241 2.78037 8.38286L2.86364 8.37718L13.6508 8.3775L9.75356 4.43903C9.5134 4.19636 9.51256 3.80206 9.75169 3.55835C9.96907 3.33678 10.3099 3.31594 10.5505 3.4963L10.6195 3.55645L15.5695 8.55829L15.5816 8.57141C15.5942 8.58486 15.6062 8.59887 15.6175 8.61342L15.5695 8.55829C15.5933 8.58239 15.6148 8.60798 15.634 8.63477C15.6455 8.65161 15.6567 8.66908 15.6671 8.68713C15.6905 8.7273 15.7086 8.76933 15.722 8.81256C15.7265 8.82779 15.7307 8.84335 15.7343 8.85914C15.7372 8.87119 15.7396 8.88344 15.7416 8.89574C15.7437 8.90907 15.7454 8.92241 15.7468 8.93587C15.7483 8.94938 15.7493 8.9632 15.7498 8.97702C15.7499 8.98469 15.75 8.99229 15.75 8.99992L15.7498 9.02059C15.7493 9.03593 15.7482 9.05125 15.7466 9.06653L15.75 8.99992C15.75 9.03548 15.7471 9.07034 15.7414 9.10427C15.7389 9.11973 15.7357 9.13526 15.7319 9.15067C15.7289 9.16291 15.7256 9.17494 15.7219 9.1868C15.7176 9.2009 15.7126 9.21511 15.7071 9.22916C15.7014 9.24366 15.6953 9.25783 15.6886 9.27171C15.6836 9.28234 15.6779 9.2933 15.672 9.30411C15.6607 9.3244 15.6487 9.34344 15.6359 9.36174C15.6338 9.3646 15.6316 9.36776 15.6292 9.3709C15.6088 9.3987 15.5876 9.42322 15.5646 9.44593L10.6195 14.4435C10.3794 14.6862 9.99087 14.6854 9.75172 14.4417C9.53432 14.2201 9.51522 13.8741 9.69396 13.6307L9.75352 13.561L13.65 9.62325L2.86364 9.62266C2.52473 9.62266 2.25 9.34385 2.25 8.99992Z" fill="#FAFAF9"/>
</svg>
