<svg width="374" height="140" viewBox="0 0 374 140" fill="none" xmlns="http://www.w3.org/2000/svg">
<g filter="url(#filter0_b)">
<rect width="374" height="140" rx="10" fill="#FCFBFB"/>
</g>
<path d="M33.41 30.152C33.506 30.36 33.554 30.568 33.554 30.776C33.554 31.144 33.402 31.456 33.098 31.712C32.81 31.968 32.474 32.096 32.09 32.096C31.834 32.096 31.594 32.032 31.37 31.904C31.146 31.76 30.97 31.544 30.842 31.256L29.402 28.04H20.954L19.514 31.256C19.386 31.544 19.21 31.76 18.986 31.904C18.762 32.032 18.514 32.096 18.242 32.096C17.874 32.096 17.538 31.968 17.234 31.712C16.93 31.456 16.778 31.144 16.778 30.776C16.778 30.568 16.826 30.36 16.922 30.152L23.546 15.92C23.69 15.6 23.906 15.36 24.194 15.2C24.498 15.024 24.818 14.936 25.154 14.936C25.49 14.936 25.802 15.024 26.09 15.2C26.394 15.36 26.618 15.6 26.762 15.92L33.41 30.152ZM22.01 25.64H28.346L25.178 18.512L22.01 25.64ZM37.0385 32.144C36.5905 32.144 36.2305 32.016 35.9585 31.76C35.6865 31.504 35.5505 31.16 35.5505 30.728V21.776C35.5345 21.312 35.6545 20.944 35.9105 20.672C36.1665 20.4 36.5185 20.264 36.9665 20.264H45.0065C45.4705 20.248 45.8385 20.368 46.1105 20.624C46.3825 20.88 46.5185 21.232 46.5185 21.68V30.728C46.5185 31.16 46.3825 31.504 46.1105 31.76C45.8385 32.016 45.4785 32.144 45.0305 32.144C44.5665 32.144 44.1985 32.016 43.9265 31.76C43.6545 31.504 43.5185 31.16 43.5185 30.728V22.52H38.5505V30.728C38.5505 31.16 38.4145 31.504 38.1425 31.76C37.8705 32.016 37.5025 32.144 37.0385 32.144ZM56.3118 19.976C57.3198 19.976 58.2158 20.232 58.9998 20.744C59.7998 21.256 60.4158 21.984 60.8478 22.928C61.2958 23.856 61.5198 24.928 61.5198 26.144C61.5198 27.36 61.2958 28.424 60.8478 29.336C60.4158 30.248 59.8078 30.952 59.0238 31.448C58.2398 31.944 57.3358 32.192 56.3118 32.192C55.4798 32.192 54.7358 32.016 54.0798 31.664C53.4238 31.312 52.9198 30.824 52.5678 30.2V35.096C52.5678 35.512 52.4318 35.84 52.1598 36.08C51.8878 36.32 51.5278 36.44 51.0798 36.44C50.6318 36.44 50.2638 36.312 49.9758 36.056C49.7038 35.8 49.5678 35.464 49.5678 35.048V21.44C49.5678 21.008 49.6958 20.664 49.9518 20.408C50.2238 20.152 50.5838 20.024 51.0318 20.024C51.4798 20.024 51.8398 20.152 52.1118 20.408C52.3838 20.664 52.5198 21.008 52.5198 21.44V22.04C52.8718 21.384 53.3758 20.88 54.0318 20.528C54.7038 20.16 55.4638 19.976 56.3118 19.976ZM55.5198 29.864C56.4638 29.864 57.1998 29.544 57.7278 28.904C58.2558 28.248 58.5198 27.328 58.5198 26.144C58.5198 24.928 58.2558 23.984 57.7278 23.312C57.1998 22.64 56.4638 22.304 55.5198 22.304C54.5598 22.304 53.8158 22.632 53.2878 23.288C52.7758 23.944 52.5198 24.88 52.5198 26.096C52.5198 27.296 52.7758 28.224 53.2878 28.88C53.8158 29.536 54.5598 29.864 55.5198 29.864ZM73.2699 28.784C73.5419 28.784 73.7579 28.888 73.9179 29.096C74.0939 29.304 74.1819 29.584 74.1819 29.936C74.1819 30.432 73.8859 30.848 73.2939 31.184C72.7499 31.488 72.1339 31.736 71.4459 31.928C70.7579 32.104 70.1019 32.192 69.4779 32.192C67.5899 32.192 66.0939 31.648 64.9899 30.56C63.8859 29.472 63.3339 27.984 63.3339 26.096C63.3339 24.896 63.5739 23.832 64.0539 22.904C64.5339 21.976 65.2059 21.256 66.0699 20.744C66.9499 20.232 67.9419 19.976 69.0459 19.976C70.1019 19.976 71.0219 20.208 71.8059 20.672C72.5899 21.136 73.1979 21.792 73.6299 22.64C74.0619 23.488 74.2779 24.488 74.2779 25.64C74.2779 26.328 73.9739 26.672 73.3659 26.672H66.2859C66.3819 27.776 66.6939 28.592 67.2219 29.12C67.7499 29.632 68.5179 29.888 69.5259 29.888C70.0379 29.888 70.4859 29.824 70.8699 29.696C71.2699 29.568 71.7179 29.392 72.2139 29.168C72.6939 28.912 73.0459 28.784 73.2699 28.784ZM69.1179 22.088C68.3019 22.088 67.6459 22.344 67.1499 22.856C66.6699 23.368 66.3819 24.104 66.2859 25.064H71.7099C71.6779 24.088 71.4379 23.352 70.9899 22.856C70.5419 22.344 69.9179 22.088 69.1179 22.088ZM80.8599 23.72C80.8599 26.168 80.5559 28.04 79.9479 29.336C79.3399 30.616 78.4679 31.528 77.3319 32.072C77.1559 32.152 76.9479 32.192 76.7079 32.192C76.3559 32.192 76.0679 32.088 75.8439 31.88C75.6199 31.656 75.5079 31.376 75.5079 31.04C75.5079 30.8 75.5719 30.576 75.6999 30.368C75.8279 30.144 76.0199 29.96 76.2759 29.816C76.9639 29.432 77.4359 28.792 77.6919 27.896C77.9639 27 78.0999 25.632 78.0999 23.792V21.776C78.0839 21.312 78.2039 20.944 78.4599 20.672C78.7159 20.4 79.0679 20.264 79.5159 20.264H85.8519C86.3159 20.248 86.6839 20.368 86.9559 20.624C87.2279 20.88 87.3639 21.232 87.3639 21.68V30.728C87.3639 31.16 87.2279 31.504 86.9559 31.76C86.6839 32.016 86.3159 32.144 85.8519 32.144C85.4039 32.144 85.0439 32.016 84.7719 31.76C84.4999 31.504 84.3639 31.16 84.3639 30.728V22.52H80.8599V23.72ZM91.8594 32C91.3954 32.016 91.0274 31.896 90.7554 31.64C90.4834 31.384 90.3474 31.032 90.3474 30.584V21.44C90.3474 21.008 90.4834 20.664 90.7554 20.408C91.0274 20.152 91.3874 20.024 91.8354 20.024C92.2994 20.024 92.6674 20.152 92.9394 20.408C93.2114 20.664 93.3474 21.008 93.3474 21.44V24.152H95.5794C98.6354 24.152 100.163 25.416 100.163 27.944C100.163 28.824 99.9394 29.568 99.4914 30.176C99.0594 30.784 98.4834 31.24 97.7634 31.544C97.0434 31.848 96.2754 32 95.4594 32H91.8594ZM94.7874 29.936C95.4434 29.936 96.0034 29.784 96.4674 29.48C96.9314 29.16 97.1634 28.664 97.1634 27.992C97.1634 27.32 96.9474 26.856 96.5154 26.6C96.0834 26.344 95.5074 26.216 94.7874 26.216H93.3234V29.936H94.7874ZM103.576 28.544C104.12 28.544 104.56 28.744 104.896 29.144C105.232 29.544 105.4 30.128 105.4 30.896C105.4 32.416 104.872 33.728 103.816 34.832C103.608 35.04 103.384 35.144 103.144 35.144C102.904 35.144 102.696 35.064 102.52 34.904C102.344 34.744 102.256 34.552 102.256 34.328C102.256 34.136 102.336 33.952 102.496 33.776C102.976 33.264 103.288 32.688 103.432 32.048C102.968 32 102.584 31.824 102.28 31.52C101.992 31.2 101.848 30.808 101.848 30.344C101.848 29.832 102.008 29.408 102.328 29.072C102.664 28.72 103.08 28.544 103.576 28.544ZM125.069 29.504C126.029 29.504 126.509 29.912 126.509 30.728C126.509 31.576 126.029 32 125.069 32H115.949C115.533 32 115.205 31.88 114.965 31.64C114.725 31.384 114.605 31.072 114.605 30.704C114.605 30.224 114.789 29.792 115.157 29.408L120.629 23.528C121.301 22.792 121.789 22.12 122.093 21.512C122.413 20.888 122.573 20.272 122.573 19.664C122.573 18.912 122.357 18.336 121.925 17.936C121.493 17.536 120.877 17.336 120.077 17.336C119.421 17.336 118.781 17.464 118.157 17.72C117.549 17.96 116.933 18.296 116.309 18.728C116.149 18.84 115.989 18.936 115.829 19.016C115.669 19.08 115.509 19.112 115.349 19.112C115.077 19.112 114.837 18.984 114.629 18.728C114.437 18.472 114.341 18.168 114.341 17.816C114.341 17.576 114.381 17.368 114.461 17.192C114.557 17.016 114.701 16.848 114.893 16.688C115.597 16.128 116.421 15.688 117.365 15.368C118.309 15.032 119.253 14.864 120.197 14.864C121.845 14.864 123.157 15.28 124.133 16.112C125.125 16.944 125.621 18.064 125.621 19.472C125.621 20.448 125.413 21.368 124.997 22.232C124.581 23.08 123.877 24.032 122.885 25.088L118.733 29.504H125.069ZM134.731 32.216C132.731 32.216 131.203 31.48 130.147 30.008C129.091 28.52 128.563 26.36 128.563 23.528C128.563 20.712 129.091 18.568 130.147 17.096C131.203 15.608 132.731 14.864 134.731 14.864C136.731 14.864 138.259 15.608 139.315 17.096C140.371 18.568 140.899 20.712 140.899 23.528C140.899 26.344 140.371 28.496 139.315 29.984C138.259 31.472 136.731 32.216 134.731 32.216ZM134.731 29.792C135.819 29.792 136.611 29.296 137.107 28.304C137.603 27.296 137.851 25.704 137.851 23.528C137.851 21.336 137.603 19.752 137.107 18.776C136.611 17.784 135.819 17.288 134.731 17.288C133.643 17.288 132.851 17.784 132.355 18.776C131.859 19.768 131.611 21.352 131.611 23.528C131.611 25.704 131.859 27.296 132.355 28.304C132.851 29.296 133.643 29.792 134.731 29.792ZM153.874 29.504C154.834 29.504 155.314 29.912 155.314 30.728C155.314 31.576 154.834 32 153.874 32H144.754C144.338 32 144.01 31.88 143.77 31.64C143.53 31.384 143.41 31.072 143.41 30.704C143.41 30.224 143.594 29.792 143.962 29.408L149.434 23.528C150.106 22.792 150.594 22.12 150.898 21.512C151.218 20.888 151.378 20.272 151.378 19.664C151.378 18.912 151.162 18.336 150.73 17.936C150.298 17.536 149.682 17.336 148.882 17.336C148.226 17.336 147.586 17.464 146.962 17.72C146.354 17.96 145.738 18.296 145.114 18.728C144.954 18.84 144.794 18.936 144.634 19.016C144.474 19.08 144.314 19.112 144.154 19.112C143.882 19.112 143.642 18.984 143.434 18.728C143.242 18.472 143.146 18.168 143.146 17.816C143.146 17.576 143.186 17.368 143.266 17.192C143.362 17.016 143.506 16.848 143.698 16.688C144.402 16.128 145.226 15.688 146.17 15.368C147.114 15.032 148.058 14.864 149.002 14.864C150.65 14.864 151.962 15.28 152.938 16.112C153.93 16.944 154.426 18.064 154.426 19.472C154.426 20.448 154.218 21.368 153.802 22.232C153.386 23.08 152.682 24.032 151.69 25.088L147.538 29.504H153.874ZM168.36 29.504C169.32 29.504 169.8 29.912 169.8 30.728C169.8 31.576 169.32 32 168.36 32H160.248C159.272 32 158.784 31.576 158.784 30.728C158.784 29.912 159.272 29.504 160.248 29.504H162.744V18.56L160.44 19.976C160.216 20.104 160.016 20.168 159.84 20.168C159.504 20.168 159.216 20.024 158.976 19.736C158.752 19.448 158.64 19.128 158.64 18.776C158.64 18.312 158.848 17.952 159.264 17.696L162.984 15.392C163.464 15.104 163.92 14.96 164.352 14.96C164.8 14.96 165.16 15.096 165.432 15.368C165.704 15.64 165.84 16.016 165.84 16.496V29.504H168.36Z" fill="#475569"/>
<path d="M22.5126 78.608C22.1646 78.608 21.8886 78.506 21.6846 78.302C21.4806 78.086 21.3786 77.798 21.3786 77.438V66.944C21.3786 66.608 21.4866 66.338 21.7026 66.134C21.9186 65.918 22.1946 65.81 22.5306 65.81H31.0266C31.3626 65.81 31.6326 65.918 31.8366 66.134C32.0526 66.338 32.1606 66.608 32.1606 66.944V77.456C32.1606 77.804 32.0526 78.086 31.8366 78.302C31.6326 78.506 31.3626 78.608 31.0266 78.608C30.6786 78.608 30.4026 78.506 30.1986 78.302C29.9946 78.086 29.8926 77.804 29.8926 77.456V67.664H23.6646V77.456C23.6646 77.804 23.5566 78.086 23.3406 78.302C23.1366 78.506 22.8606 78.608 22.5126 78.608ZM49.4942 65.72C49.8422 65.72 50.1182 65.828 50.3222 66.044C50.5262 66.248 50.6282 66.524 50.6282 66.872V77.438C50.6282 77.786 50.5202 78.068 50.3042 78.284C50.1002 78.5 49.8302 78.608 49.4942 78.608C49.1462 78.608 48.8702 78.5 48.6662 78.284C48.4622 78.068 48.3602 77.786 48.3602 77.438V72.992H41.8622V77.438C41.8622 77.786 41.7542 78.068 41.5382 78.284C41.3342 78.5 41.0582 78.608 40.7102 78.608C40.3742 78.608 40.0982 78.5 39.8822 78.284C39.6782 78.068 39.5762 77.786 39.5762 77.438V66.872C39.5762 66.524 39.6782 66.248 39.8822 66.044C40.0862 65.828 40.3622 65.72 40.7102 65.72C41.0582 65.72 41.3342 65.828 41.5382 66.044C41.7542 66.248 41.8622 66.524 41.8622 66.872V71.12H48.3602V66.872C48.3602 66.524 48.4622 66.248 48.6662 66.044C48.8702 65.828 49.1462 65.72 49.4942 65.72Z" fill="#94A3B8"/>
<path d="M35.6695 100.634C37.4455 100.634 38.7535 100.988 39.5935 101.696C40.4455 102.404 40.8715 103.352 40.8715 104.54C40.8715 105.308 40.6795 106.01 40.2955 106.646C39.9115 107.27 39.3235 107.774 38.5315 108.158C37.7515 108.53 36.7855 108.716 35.6335 108.716C34.7455 108.716 33.8695 108.602 33.0055 108.374C32.1535 108.134 31.4275 107.798 30.8275 107.366L31.9795 105.134C32.4595 105.494 33.0115 105.776 33.6355 105.98C34.2595 106.172 34.9015 106.268 35.5615 106.268C36.2935 106.268 36.8695 106.124 37.2895 105.836C37.7095 105.548 37.9195 105.146 37.9195 104.63C37.9195 104.09 37.6975 103.682 37.2535 103.406C36.8215 103.13 36.0655 102.992 34.9855 102.992H31.7635L32.4115 95.9H40.0975V98.24H34.8415L34.6435 100.634H35.6695Z" fill="#475569"/>
<path d="M82.2648 71.948C82.9968 72.152 83.5608 72.524 83.9568 73.064C84.3648 73.604 84.5688 74.264 84.5688 75.044C84.5688 76.124 84.1788 76.97 83.3988 77.582C82.6308 78.194 81.5688 78.5 80.2128 78.5H75.5688C75.2208 78.5 74.9448 78.404 74.7408 78.212C74.5488 78.02 74.4528 77.75 74.4528 77.402V66.908C74.4528 66.56 74.5488 66.29 74.7408 66.098C74.9448 65.906 75.2208 65.81 75.5688 65.81H80.0328C81.3528 65.81 82.3848 66.104 83.1288 66.692C83.8848 67.268 84.2628 68.078 84.2628 69.122C84.2628 69.794 84.0828 70.376 83.7228 70.868C83.3748 71.36 82.8888 71.72 82.2648 71.948ZM76.7208 71.156H79.6548C81.2508 71.156 82.0488 70.562 82.0488 69.374C82.0488 68.774 81.8508 68.33 81.4548 68.042C81.0588 67.754 80.4588 67.61 79.6548 67.61H76.7208V71.156ZM79.9608 76.7C80.8008 76.7 81.4128 76.55 81.7968 76.25C82.1808 75.95 82.3728 75.482 82.3728 74.846C82.3728 74.21 82.1748 73.736 81.7788 73.424C81.3948 73.112 80.7888 72.956 79.9608 72.956H76.7208V76.7H79.9608ZM95.4021 78.59C95.0421 78.59 94.7541 78.488 94.5381 78.284C94.3341 78.068 94.2321 77.786 94.2321 77.438V67.718H90.9561C90.2361 67.718 89.8761 67.4 89.8761 66.764C89.8761 66.128 90.2361 65.81 90.9561 65.81H99.8301C100.55 65.81 100.91 66.128 100.91 66.764C100.91 67.4 100.55 67.718 99.8301 67.718H96.5541V77.438C96.5541 77.786 96.4461 78.068 96.2301 78.284C96.0261 78.488 95.7501 78.59 95.4021 78.59Z" fill="#94A3B8"/>
<path d="M87.5375 100.598C88.3415 100.598 89.0735 100.76 89.7335 101.084C90.3935 101.408 90.9155 101.87 91.2995 102.47C91.6835 103.058 91.8755 103.742 91.8755 104.522C91.8755 105.362 91.6655 106.1 91.2455 106.736C90.8255 107.372 90.2495 107.864 89.5175 108.212C88.7975 108.548 87.9935 108.716 87.1055 108.716C85.3415 108.716 83.9615 108.176 82.9655 107.096C81.9695 106.016 81.4715 104.474 81.4715 102.47C81.4715 101.042 81.7415 99.818 82.2815 98.798C82.8215 97.778 83.5715 97.004 84.5315 96.476C85.5035 95.948 86.6255 95.684 87.8975 95.684C88.5695 95.684 89.2115 95.762 89.8235 95.918C90.4475 96.062 90.9755 96.272 91.4075 96.548L90.3275 98.69C89.7035 98.27 88.9175 98.06 87.9695 98.06C86.9015 98.06 86.0555 98.372 85.4315 98.996C84.8075 99.62 84.4715 100.526 84.4235 101.714C85.1675 100.97 86.2055 100.598 87.5375 100.598ZM86.9435 106.538C87.5675 106.538 88.0715 106.37 88.4555 106.034C88.8515 105.698 89.0495 105.242 89.0495 104.666C89.0495 104.09 88.8515 103.634 88.4555 103.298C88.0715 102.95 87.5555 102.776 86.9075 102.776C86.2715 102.776 85.7495 102.956 85.3415 103.316C84.9335 103.664 84.7295 104.114 84.7295 104.666C84.7295 105.218 84.9275 105.668 85.3235 106.016C85.7195 106.364 86.2595 106.538 86.9435 106.538Z" fill="#475569"/>
<path d="M131.157 78.662C129.933 78.662 128.859 78.398 127.935 77.87C127.023 77.342 126.321 76.586 125.829 75.602C125.337 74.618 125.091 73.466 125.091 72.146C125.091 70.826 125.337 69.68 125.829 68.708C126.321 67.724 127.023 66.968 127.935 66.44C128.859 65.912 129.933 65.648 131.157 65.648C131.949 65.648 132.693 65.768 133.389 66.008C134.085 66.236 134.703 66.572 135.243 67.016C135.399 67.136 135.507 67.262 135.567 67.394C135.627 67.526 135.657 67.688 135.657 67.88C135.657 68.144 135.585 68.366 135.441 68.546C135.297 68.726 135.123 68.816 134.919 68.816C134.679 68.816 134.433 68.732 134.181 68.564C133.665 68.18 133.185 67.916 132.741 67.772C132.297 67.616 131.805 67.538 131.265 67.538C130.017 67.538 129.069 67.928 128.421 68.708C127.785 69.488 127.467 70.634 127.467 72.146C127.467 73.67 127.785 74.822 128.421 75.602C129.069 76.382 130.017 76.772 131.265 76.772C131.781 76.772 132.255 76.694 132.687 76.538C133.131 76.382 133.629 76.118 134.181 75.746C134.301 75.674 134.421 75.614 134.541 75.566C134.661 75.518 134.787 75.494 134.919 75.494C135.123 75.494 135.297 75.584 135.441 75.764C135.585 75.944 135.657 76.166 135.657 76.43C135.657 76.61 135.627 76.772 135.567 76.916C135.507 77.048 135.399 77.174 135.243 77.294C134.703 77.738 134.085 78.08 133.389 78.32C132.693 78.548 131.949 78.662 131.157 78.662ZM143.518 78.608C143.17 78.608 142.888 78.506 142.672 78.302C142.468 78.086 142.366 77.798 142.366 77.438V66.908C142.366 66.56 142.462 66.29 142.654 66.098C142.858 65.906 143.134 65.81 143.482 65.81H147.91C149.266 65.81 150.322 66.152 151.078 66.836C151.834 67.508 152.212 68.456 152.212 69.68C152.212 70.904 151.834 71.858 151.078 72.542C150.322 73.226 149.266 73.568 147.91 73.568H144.688V77.438C144.688 77.798 144.58 78.086 144.364 78.302C144.16 78.506 143.878 78.608 143.518 78.608ZM147.622 71.786C149.218 71.786 150.016 71.09 150.016 69.698C150.016 68.306 149.218 67.61 147.622 67.61H144.688V71.786H147.622Z" fill="#94A3B8"/>
<path d="M142.485 95.9V97.79L137.805 108.5H134.637L139.155 98.276H134.979V100.328H132.387V95.9H142.485Z" fill="#475569"/>
<g filter="url(#filter1_d)">
<rect x="164" y="47" width="50" height="80" rx="25" fill="url(#paint0_linear)"/>
</g>
<path d="M176.199 66.854C176.199 66.506 176.301 66.23 176.505 66.026C176.709 65.81 176.985 65.702 177.333 65.702C177.681 65.702 177.957 65.81 178.161 66.026C178.365 66.23 178.467 66.506 178.467 66.854V69.734C178.467 70.61 178.707 71.24 179.187 71.624C179.679 72.008 180.387 72.2 181.311 72.2C182.175 72.2 182.895 72.104 183.471 71.912V66.854C183.471 66.506 183.573 66.23 183.777 66.026C183.993 65.81 184.269 65.702 184.605 65.702C184.953 65.702 185.229 65.81 185.433 66.026C185.637 66.23 185.739 66.506 185.739 66.854V77.456C185.739 77.804 185.631 78.086 185.415 78.302C185.211 78.506 184.941 78.608 184.605 78.608C184.257 78.608 183.981 78.506 183.777 78.302C183.573 78.086 183.471 77.804 183.471 77.456V73.694C183.171 73.778 182.769 73.856 182.265 73.928C181.773 74 181.305 74.036 180.861 74.036C179.409 74.036 178.269 73.724 177.441 73.1C176.613 72.464 176.199 71.462 176.199 70.094V66.854ZM197.314 78.59C196.954 78.59 196.666 78.488 196.45 78.284C196.246 78.068 196.144 77.786 196.144 77.438V67.718H192.868C192.148 67.718 191.788 67.4 191.788 66.764C191.788 66.128 192.148 65.81 192.868 65.81H201.742C202.462 65.81 202.822 66.128 202.822 66.764C202.822 67.4 202.462 67.718 201.742 67.718H198.466V77.438C198.466 77.786 198.358 78.068 198.142 78.284C197.938 78.488 197.662 78.59 197.314 78.59Z" fill="#FAFAF9"/>
<path d="M191.883 101.876C192.507 102.188 192.981 102.596 193.305 103.1C193.641 103.604 193.809 104.186 193.809 104.846C193.809 105.626 193.587 106.31 193.143 106.898C192.699 107.474 192.075 107.924 191.271 108.248C190.467 108.56 189.537 108.716 188.481 108.716C187.425 108.716 186.495 108.56 185.691 108.248C184.899 107.924 184.281 107.474 183.837 106.898C183.405 106.31 183.189 105.626 183.189 104.846C183.189 104.186 183.351 103.604 183.675 103.1C184.011 102.596 184.485 102.188 185.097 101.876C184.629 101.588 184.269 101.228 184.017 100.796C183.765 100.352 183.639 99.848 183.639 99.284C183.639 98.552 183.843 97.916 184.251 97.376C184.659 96.836 185.229 96.422 185.961 96.134C186.693 95.834 187.533 95.684 188.481 95.684C189.441 95.684 190.287 95.834 191.019 96.134C191.763 96.422 192.339 96.836 192.747 97.376C193.155 97.916 193.359 98.552 193.359 99.284C193.359 99.848 193.233 100.352 192.981 100.796C192.729 101.228 192.363 101.588 191.883 101.876ZM188.481 97.826C187.893 97.826 187.419 97.97 187.059 98.258C186.711 98.534 186.537 98.918 186.537 99.41C186.537 99.89 186.711 100.268 187.059 100.544C187.407 100.82 187.881 100.958 188.481 100.958C189.081 100.958 189.561 100.82 189.921 100.544C190.281 100.268 190.461 99.89 190.461 99.41C190.461 98.918 190.281 98.534 189.921 98.258C189.561 97.97 189.081 97.826 188.481 97.826ZM188.481 106.574C189.213 106.574 189.789 106.412 190.209 106.088C190.641 105.752 190.857 105.308 190.857 104.756C190.857 104.204 190.641 103.766 190.209 103.442C189.789 103.118 189.213 102.956 188.481 102.956C187.761 102.956 187.191 103.118 186.771 103.442C186.351 103.766 186.141 104.204 186.141 104.756C186.141 105.32 186.351 105.764 186.771 106.088C187.191 106.412 187.761 106.574 188.481 106.574Z" fill="#FAFAF9"/>
<path d="M227.884 78.608C227.536 78.608 227.26 78.506 227.056 78.302C226.852 78.086 226.75 77.798 226.75 77.438V66.944C226.75 66.608 226.858 66.338 227.074 66.134C227.29 65.918 227.566 65.81 227.902 65.81H236.398C236.734 65.81 237.004 65.918 237.208 66.134C237.424 66.338 237.532 66.608 237.532 66.944V77.456C237.532 77.804 237.424 78.086 237.208 78.302C237.004 78.506 236.734 78.608 236.398 78.608C236.05 78.608 235.774 78.506 235.57 78.302C235.366 78.086 235.264 77.804 235.264 77.456V67.664H229.036V77.456C229.036 77.804 228.928 78.086 228.712 78.302C228.508 78.506 228.232 78.608 227.884 78.608ZM249.105 78.59C248.745 78.59 248.457 78.488 248.241 78.284C248.037 78.068 247.935 77.786 247.935 77.438V67.718H244.659C243.939 67.718 243.579 67.4 243.579 66.764C243.579 66.128 243.939 65.81 244.659 65.81H253.533C254.253 65.81 254.613 66.128 254.613 66.764C254.613 67.4 254.253 67.718 253.533 67.718H250.257V77.438C250.257 77.786 250.149 78.068 249.933 78.284C249.729 78.488 249.453 78.59 249.105 78.59Z" fill="#94A3B8"/>
<path d="M238.9 95.684C240.664 95.684 242.044 96.224 243.04 97.304C244.036 98.372 244.534 99.914 244.534 101.93C244.534 103.358 244.264 104.582 243.724 105.602C243.196 106.622 242.446 107.396 241.474 107.924C240.502 108.452 239.38 108.716 238.108 108.716C237.436 108.716 236.794 108.644 236.182 108.5C235.57 108.344 235.048 108.128 234.616 107.852L235.696 105.71C236.308 106.13 237.094 106.34 238.054 106.34C239.122 106.34 239.968 106.028 240.592 105.404C241.216 104.768 241.552 103.856 241.6 102.668C240.844 103.424 239.8 103.802 238.468 103.802C237.664 103.802 236.932 103.64 236.272 103.316C235.612 102.992 235.09 102.536 234.706 101.948C234.322 101.348 234.13 100.658 234.13 99.878C234.13 99.038 234.34 98.3 234.76 97.664C235.18 97.028 235.75 96.542 236.47 96.206C237.202 95.858 238.012 95.684 238.9 95.684ZM239.116 101.624C239.752 101.624 240.268 101.45 240.664 101.102C241.072 100.742 241.276 100.286 241.276 99.734C241.276 99.182 241.078 98.732 240.682 98.384C240.298 98.036 239.764 97.862 239.08 97.862C238.456 97.862 237.946 98.03 237.55 98.366C237.166 98.702 236.974 99.158 236.974 99.734C236.974 100.31 237.166 100.772 237.55 101.12C237.946 101.456 238.468 101.624 239.116 101.624Z" fill="#475569"/>
<path d="M284.271 78.662C283.047 78.662 281.973 78.398 281.049 77.87C280.137 77.342 279.435 76.586 278.943 75.602C278.451 74.618 278.205 73.466 278.205 72.146C278.205 70.826 278.451 69.68 278.943 68.708C279.435 67.724 280.137 66.968 281.049 66.44C281.973 65.912 283.047 65.648 284.271 65.648C285.063 65.648 285.807 65.768 286.503 66.008C287.199 66.236 287.817 66.572 288.357 67.016C288.513 67.136 288.621 67.262 288.681 67.394C288.741 67.526 288.771 67.688 288.771 67.88C288.771 68.144 288.699 68.366 288.555 68.546C288.411 68.726 288.237 68.816 288.033 68.816C287.793 68.816 287.547 68.732 287.295 68.564C286.779 68.18 286.299 67.916 285.855 67.772C285.411 67.616 284.919 67.538 284.379 67.538C283.131 67.538 282.183 67.928 281.535 68.708C280.899 69.488 280.581 70.634 280.581 72.146C280.581 73.67 280.899 74.822 281.535 75.602C282.183 76.382 283.131 76.772 284.379 76.772C284.895 76.772 285.369 76.694 285.801 76.538C286.245 76.382 286.743 76.118 287.295 75.746C287.415 75.674 287.535 75.614 287.655 75.566C287.775 75.518 287.901 75.494 288.033 75.494C288.237 75.494 288.411 75.584 288.555 75.764C288.699 75.944 288.771 76.166 288.771 76.43C288.771 76.61 288.741 76.772 288.681 76.916C288.621 77.048 288.513 77.174 288.357 77.294C287.817 77.738 287.199 78.08 286.503 78.32C285.807 78.548 285.063 78.662 284.271 78.662ZM296.632 78.5C296.284 78.5 296.002 78.398 295.786 78.194C295.582 77.978 295.48 77.696 295.48 77.348V66.944C295.48 66.608 295.582 66.338 295.786 66.134C296.002 65.918 296.284 65.81 296.632 65.81H303.346C303.682 65.81 303.952 65.894 304.156 66.062C304.36 66.23 304.462 66.452 304.462 66.728C304.462 67.004 304.36 67.232 304.156 67.412C303.952 67.58 303.682 67.664 303.346 67.664H297.766V70.742H300.79C302.17 70.742 303.226 71.06 303.958 71.696C304.702 72.332 305.074 73.268 305.074 74.504C305.074 75.308 304.894 76.01 304.534 76.61C304.186 77.21 303.682 77.678 303.022 78.014C302.374 78.338 301.6 78.5 300.7 78.5H296.632ZM300.412 76.7C301.216 76.7 301.828 76.508 302.248 76.124C302.668 75.74 302.878 75.2 302.878 74.504C302.878 73.82 302.68 73.322 302.284 73.01C301.9 72.686 301.3 72.524 300.484 72.524H297.766V76.7H300.412Z" fill="#94A3B8"/>
<path d="M286.429 95.9V108.5H283.513V98.24H280.993V95.9H286.429ZM294.018 108.716C292.974 108.716 292.044 108.458 291.228 107.942C290.412 107.426 289.77 106.682 289.302 105.71C288.846 104.726 288.618 103.556 288.618 102.2C288.618 100.844 288.846 99.68 289.302 98.708C289.77 97.724 290.412 96.974 291.228 96.458C292.044 95.942 292.974 95.684 294.018 95.684C295.062 95.684 295.992 95.942 296.808 96.458C297.624 96.974 298.26 97.724 298.716 98.708C299.184 99.68 299.418 100.844 299.418 102.2C299.418 103.556 299.184 104.726 298.716 105.71C298.26 106.682 297.624 107.426 296.808 107.942C295.992 108.458 295.062 108.716 294.018 108.716ZM294.018 106.25C294.786 106.25 295.386 105.92 295.818 105.26C296.262 104.6 296.484 103.58 296.484 102.2C296.484 100.82 296.262 99.8 295.818 99.14C295.386 98.48 294.786 98.15 294.018 98.15C293.262 98.15 292.662 98.48 292.218 99.14C291.786 99.8 291.57 100.82 291.57 102.2C291.57 103.58 291.786 104.6 292.218 105.26C292.662 105.92 293.262 106.25 294.018 106.25Z" fill="#475569"/>
<path d="M336.597 71.948C337.329 72.152 337.893 72.524 338.289 73.064C338.697 73.604 338.901 74.264 338.901 75.044C338.901 76.124 338.511 76.97 337.731 77.582C336.963 78.194 335.901 78.5 334.545 78.5H329.901C329.553 78.5 329.277 78.404 329.073 78.212C328.881 78.02 328.785 77.75 328.785 77.402V66.908C328.785 66.56 328.881 66.29 329.073 66.098C329.277 65.906 329.553 65.81 329.901 65.81H334.365C335.685 65.81 336.717 66.104 337.461 66.692C338.217 67.268 338.595 68.078 338.595 69.122C338.595 69.794 338.415 70.376 338.055 70.868C337.707 71.36 337.221 71.72 336.597 71.948ZM331.053 71.156H333.987C335.583 71.156 336.381 70.562 336.381 69.374C336.381 68.774 336.183 68.33 335.787 68.042C335.391 67.754 334.791 67.61 333.987 67.61H331.053V71.156ZM334.293 76.7C335.133 76.7 335.745 76.55 336.129 76.25C336.513 75.95 336.705 75.482 336.705 74.846C336.705 74.21 336.507 73.736 336.111 73.424C335.727 73.112 335.121 72.956 334.293 72.956H331.053V76.7H334.293ZM351.422 78.662C350.198 78.662 349.124 78.398 348.2 77.87C347.288 77.342 346.586 76.586 346.094 75.602C345.602 74.618 345.356 73.466 345.356 72.146C345.356 70.826 345.602 69.68 346.094 68.708C346.586 67.724 347.288 66.968 348.2 66.44C349.124 65.912 350.198 65.648 351.422 65.648C352.214 65.648 352.958 65.768 353.654 66.008C354.35 66.236 354.968 66.572 355.508 67.016C355.664 67.136 355.772 67.262 355.832 67.394C355.892 67.526 355.922 67.688 355.922 67.88C355.922 68.144 355.85 68.366 355.706 68.546C355.562 68.726 355.388 68.816 355.184 68.816C354.944 68.816 354.698 68.732 354.446 68.564C353.93 68.18 353.45 67.916 353.006 67.772C352.562 67.616 352.07 67.538 351.53 67.538C350.282 67.538 349.334 67.928 348.686 68.708C348.05 69.488 347.732 70.634 347.732 72.146C347.732 73.67 348.05 74.822 348.686 75.602C349.334 76.382 350.282 76.772 351.53 76.772C352.046 76.772 352.52 76.694 352.952 76.538C353.396 76.382 353.894 76.118 354.446 75.746C354.566 75.674 354.686 75.614 354.806 75.566C354.926 75.518 355.052 75.494 355.184 75.494C355.388 75.494 355.562 75.584 355.706 75.764C355.85 75.944 355.922 76.166 355.922 76.43C355.922 76.61 355.892 76.772 355.832 76.916C355.772 77.048 355.664 77.174 355.508 77.294C354.968 77.738 354.35 78.08 353.654 78.32C352.958 78.548 352.214 78.662 351.422 78.662Z" fill="#94A3B8"/>
<path d="M340.513 95.9V108.5H337.597V98.24H335.077V95.9H340.513ZM347.562 95.9V108.5H344.646V98.24H342.126V95.9H347.562Z" fill="#475569"/>
<defs>
<filter id="filter0_b" x="-50" y="-50" width="474" height="240" filterUnits="userSpaceOnUse" color-interpolation-filters="sRGB">
<feFlood flood-opacity="0" result="BackgroundImageFix"/>
<feGaussianBlur in="BackgroundImage" stdDeviation="25"/>
<feComposite in2="SourceAlpha" operator="in" result="effect1_backgroundBlur"/>
<feBlend mode="normal" in="SourceGraphic" in2="effect1_backgroundBlur" result="shape"/>
</filter>
<filter id="filter1_d" x="154" y="37" width="70" height="100" filterUnits="userSpaceOnUse" color-interpolation-filters="sRGB">
<feFlood flood-opacity="0" result="BackgroundImageFix"/>
<feColorMatrix in="SourceAlpha" type="matrix" values="0 0 0 0 0 0 0 0 0 0 0 0 0 0 0 0 0 0 127 0"/>
<feOffset/>
<feGaussianBlur stdDeviation="5"/>
<feColorMatrix type="matrix" values="0 0 0 0 0.490196 0 0 0 0 0.827451 0 0 0 0 0.988235 0 0 0 1 0"/>
<feBlend mode="normal" in2="BackgroundImageFix" result="effect1_dropShadow"/>
<feBlend mode="normal" in="SourceGraphic" in2="effect1_dropShadow" result="shape"/>
</filter>
<linearGradient id="paint0_linear" x1="170.132" y1="59.5933" x2="216.443" y2="71.0568" gradientUnits="userSpaceOnUse">
<stop stop-color="#38BDF8"/>
<stop offset="1" stop-color="#7DD3FC"/>
</linearGradient>
</defs>
</svg>
