<svg width="48" height="48" viewBox="0 0 48 48" fill="none" xmlns="http://www.w3.org/2000/svg">
<path d="M41.5681 14.1784C41.4449 13.7536 41.0017 13.5079 40.5769 13.6327C40.1521 13.7552 39.9081 14.1992 40.0313 14.6231C40.4961 16.2239 40.5745 17.5287 40.2849 18.8511C40.1913 19.2831 40.464 19.7095 40.896 19.8032C40.9529 19.8152 41.0104 19.8215 41.0672 19.8215C41.4352 19.8215 41.7664 19.5664 41.848 19.1944C42.193 17.6176 42.1034 16.024 41.5681 14.1784Z" fill="url(#paint0_linear)"/>
<path d="M39.915 10.8416C38.8638 8.74002 35.1463 7.93283 33.2414 8.88402C32.8463 9.08164 32.6863 9.56239 32.8839 9.95764C33.0815 10.3528 33.5607 10.5121 33.9575 10.3152C35.2431 9.67443 37.9079 10.4056 38.4839 11.5576C38.6248 11.8384 38.9071 12 39.2007 12C39.3207 12 39.4432 11.9728 39.5576 11.9151C39.9526 11.7176 40.1127 11.2368 39.915 10.8416Z" fill="url(#paint1_linear)"/>
<path d="M42.6423 8.64075C39.7399 5.56078 36.5623 3.99994 33.1967 3.99994C29.4343 3.99994 26.0303 6.2655 23.9999 10.0183C21.9719 6.2655 18.5775 3.99994 14.8295 3.99994C11.4815 3.99994 8.39345 5.51597 5.38951 8.63437C1.9367 12.2176 0.46951 20.4656 6.69432 26.6312C9.63029 29.5376 23.2879 43.6152 23.4255 43.7568C23.5767 43.9128 23.7831 44 23.9999 44C24.2159 44 24.4231 43.9128 24.5743 43.7575C24.7119 43.6151 38.3959 29.5384 41.3319 26.6311C47.4968 20.5248 46.0543 12.2592 42.6423 8.64075ZM40.2063 25.4944C37.6063 28.0687 26.6439 39.3351 24.0007 42.0519C21.3624 39.3344 10.4207 28.0687 7.82073 25.4944C2.32717 20.0543 3.54873 12.852 6.54235 9.744C9.22876 6.95522 11.9392 5.59997 14.8296 5.59997C18.4128 5.59997 21.6415 8.13112 23.256 12.2056C23.3776 12.5112 23.672 12.7112 24 12.7112C24.328 12.7112 24.6232 12.5112 24.744 12.2056C26.3584 8.13122 29.5976 5.59997 33.1968 5.59997C36.1448 5.59997 38.8536 6.95278 41.4784 9.73837C44.4407 12.8808 45.6472 20.1056 40.2063 25.4944Z" fill="url(#paint2_linear)"/>
<path d="M47.2 24.8H34.028L32.6656 22.7568C32.3688 22.3112 31.6312 22.3112 31.3344 22.7568L28.992 26.2712L25.5472 17.3136C25.4199 16.9848 25.0871 16.7727 24.7407 16.8032C24.3887 16.8288 24.0959 17.0824 24.0191 17.4272L21.3336 29.5128L17.5271 21.2648C17.4112 21.0136 17.1728 20.8391 16.8975 20.8063C16.6199 20.7655 16.3487 20.8839 16.1759 21.0999L13.2159 24.8H0.799969C0.358406 24.8 0 25.1575 0 25.5999C0 26.0424 0.358406 26.3999 0.799969 26.3999H13.5999C13.8431 26.3999 14.0727 26.2895 14.2248 26.0999L16.616 23.1103L20.8735 32.3351C21.0055 32.6199 21.2911 32.7999 21.5999 32.7999C21.6279 32.7999 21.6567 32.7984 21.6847 32.7952C22.0263 32.7583 22.3062 32.5088 22.3807 32.1736L25.0055 20.3632L28.0535 28.2872C28.1606 28.5664 28.4151 28.7624 28.7119 28.7952C29.011 28.8272 29.2999 28.6936 29.4654 28.444L31.9999 24.6425L32.9343 26.044C33.0831 26.2664 33.3327 26.4 33.5999 26.4H47.1999C47.6415 26.4 47.9999 26.0424 47.9999 25.6C47.9999 25.1576 47.6416 24.8 47.2 24.8Z" fill="url(#paint3_linear)"/>
<defs>
<linearGradient id="paint0_linear" x1="40.2512" y1="14.5796" x2="42.2357" y2="14.839" gradientUnits="userSpaceOnUse">
<stop stop-color="#FB7185"/>
<stop offset="1" stop-color="#F43F5E"/>
</linearGradient>
<linearGradient id="paint1_linear" x1="33.6822" y1="9.04118" x2="37.9473" y2="12.5049" gradientUnits="userSpaceOnUse">
<stop stop-color="#FB7185"/>
<stop offset="1" stop-color="#F43F5E"/>
</linearGradient>
<linearGradient id="paint2_linear" x1="7.70608" y1="10.2966" x2="43.584" y2="25.6306" gradientUnits="userSpaceOnUse">
<stop stop-color="#FB7185"/>
<stop offset="1" stop-color="#F43F5E"/>
</linearGradient>
<linearGradient id="paint3_linear" x1="5.88632" y1="19.3189" x2="25.4503" y2="42.5641" gradientUnits="userSpaceOnUse">
<stop stop-color="#FB7185"/>
<stop offset="1" stop-color="#F43F5E"/>
</linearGradient>
</defs>
</svg>
