<svg width="167" height="37" viewBox="0 0 167 37" fill="none" xmlns="http://www.w3.org/2000/svg">
<path d="M23.72 3.936C24.072 3.264 24.52 2.768 25.064 2.448C25.608 2.096 26.2 1.92 26.84 1.92C27.736 1.92 28.536 2.24 29.24 2.88C29.944 3.488 30.296 4.272 30.296 5.232C30.296 5.84 30.136 6.448 29.816 7.056L16.136 34.128C15.784 34.864 15.32 35.408 14.744 35.76C14.2 36.112 13.624 36.288 13.016 36.288C12.088 36.288 11.256 35.952 10.52 35.28C9.816 34.608 9.464 33.792 9.464 32.832C9.464 32.288 9.608 31.728 9.896 31.152L12.632 25.728L1.4 7.152C0.984 6.448 0.776 5.776 0.776 5.136C0.776 4.208 1.112 3.44 1.784 2.832C2.456 2.192 3.24 1.872 4.136 1.872C5.352 1.872 6.328 2.48 7.064 3.696L16.184 18.816L23.72 3.936ZM46.4949 36.432C44.4469 36.432 42.4789 36.224 40.5909 35.808C38.7029 35.36 37.0069 34.688 35.5029 33.792C34.8309 33.376 34.3189 32.896 33.9669 32.352C33.6149 31.808 33.4389 31.248 33.4389 30.672C33.4389 29.904 33.6949 29.264 34.2069 28.752C34.7189 28.208 35.3749 27.936 36.1749 27.936C36.7829 27.936 37.4069 28.096 38.0469 28.416C39.4229 29.184 40.7029 29.712 41.8869 30C43.0709 30.288 44.2869 30.432 45.5349 30.432C47.9029 30.432 49.7589 30.064 51.1029 29.328C52.4789 28.592 53.1669 27.504 53.1669 26.064C53.1669 24.56 52.7189 23.456 51.8229 22.752C50.9269 22.016 49.3909 21.648 47.2149 21.648H43.4229C42.3349 21.648 41.4869 21.36 40.8789 20.784C40.2709 20.208 39.9669 19.536 39.9669 18.768C39.9669 18 40.2709 17.344 40.8789 16.8C41.4869 16.224 42.3349 15.936 43.4229 15.936H46.3509C48.4949 15.936 50.0469 15.6 51.0069 14.928C51.9989 14.224 52.4949 13.168 52.4949 11.76C52.4949 10.416 51.9669 9.408 50.9109 8.736C49.8869 8.064 48.4629 7.728 46.6389 7.728C45.1029 7.728 43.7909 7.888 42.7029 8.208C41.6469 8.528 40.4149 9.008 39.0069 9.648C38.4629 9.904 37.8709 10.032 37.2309 10.032C36.3989 10.032 35.7109 9.776 35.1669 9.264C34.6549 8.72 34.3989 8.064 34.3989 7.296C34.3989 6.72 34.5749 6.176 34.9269 5.664C35.2789 5.12 35.8069 4.656 36.5109 4.272C39.6789 2.576 43.4869 1.728 47.9349 1.728C51.7749 1.728 54.7669 2.56 56.9109 4.224C59.0869 5.856 60.1749 8.08 60.1749 10.896C60.1749 12.72 59.6789 14.288 58.6869 15.6C57.7269 16.912 56.3189 17.872 54.4629 18.48C58.6869 19.632 60.7989 22.208 60.7989 26.208C60.7989 28.192 60.2069 29.968 59.0229 31.536C57.8389 33.072 56.1589 34.272 53.9829 35.136C51.8069 36 49.3109 36.432 46.4949 36.432ZM87.8105 4.176C88.4185 3.312 89.0425 2.72 89.6825 2.4C90.3225 2.048 91.2665 1.872 92.5145 1.872C93.6345 1.872 94.4985 2.176 95.1065 2.784C95.7145 3.392 96.0185 4.256 96.0185 5.376V32.592C96.0185 33.712 95.6825 34.608 95.0105 35.28C94.3385 35.952 93.4425 36.288 92.3225 36.288C91.2025 36.288 90.3065 35.952 89.6345 35.28C88.9945 34.608 88.6745 33.712 88.6745 32.592V12.912L74.7065 33.168C73.8105 34.448 72.9945 35.296 72.2585 35.712C71.5545 36.096 70.6105 36.288 69.4265 36.288C68.3065 36.288 67.4425 35.984 66.8345 35.376C66.2265 34.768 65.9225 33.904 65.9225 32.784V5.568C65.9225 4.448 66.2585 3.552 66.9305 2.88C67.6025 2.208 68.4985 1.872 69.6185 1.872C70.7385 1.872 71.6185 2.208 72.2585 2.88C72.9305 3.552 73.2665 4.448 73.2665 5.568V25.2L87.8105 4.176Z" fill="#44403C"/>
<path d="M106.463 36.288C105.343 36.288 104.431 35.952 103.727 35.28C103.055 34.576 102.719 33.664 102.719 32.544V5.664C102.719 4.544 103.023 3.68 103.631 3.072C104.239 2.464 105.103 2.16 106.223 2.16H122.735C123.951 2.16 124.847 2.4 125.423 2.88C125.999 3.36 126.287 4.112 126.287 5.136C126.287 6.128 125.999 6.864 125.423 7.344C124.847 7.824 123.951 8.064 122.735 8.064H110.111V15.84H121.775C122.991 15.84 123.887 16.08 124.463 16.56C125.039 17.04 125.327 17.792 125.327 18.816C125.327 19.808 125.039 20.544 124.463 21.024C123.887 21.504 122.991 21.744 121.775 21.744H110.111V32.544C110.111 33.696 109.775 34.608 109.103 35.28C108.463 35.952 107.583 36.288 106.463 36.288ZM135.182 36.288C134.126 36.288 133.246 36 132.542 35.424C131.87 34.848 131.534 34 131.534 32.88V15.36C131.534 14.24 131.886 13.392 132.59 12.816C133.294 12.24 134.158 11.952 135.182 11.952C136.206 11.952 137.054 12.24 137.726 12.816C138.43 13.392 138.782 14.24 138.782 15.36V32.88C138.782 34 138.43 34.848 137.726 35.424C137.054 36 136.206 36.288 135.182 36.288ZM135.182 8.112C133.902 8.112 132.894 7.792 132.158 7.152C131.422 6.48 131.054 5.584 131.054 4.464C131.054 3.344 131.422 2.464 132.158 1.824C132.894 1.184 133.902 0.863997 135.182 0.863997C136.43 0.863997 137.422 1.2 138.158 1.872C138.926 2.512 139.31 3.376 139.31 4.464C139.31 5.584 138.942 6.48 138.206 7.152C137.47 7.792 136.462 8.112 135.182 8.112ZM165.355 30.672C166.059 31.408 166.411 32.208 166.411 33.072C166.411 33.936 166.075 34.704 165.403 35.376C164.763 36.016 164.011 36.336 163.147 36.336C162.283 36.336 161.483 35.952 160.747 35.184L154.507 28.464L148.315 35.184C147.579 35.952 146.779 36.336 145.915 36.336C145.019 36.336 144.235 36.016 143.563 35.376C142.923 34.704 142.603 33.92 142.603 33.024C142.603 32.192 142.955 31.408 143.659 30.672L150.139 23.904L144.091 17.616C143.387 16.88 143.035 16.096 143.035 15.264C143.035 14.368 143.355 13.6 143.995 12.96C144.667 12.32 145.435 12 146.299 12C147.195 12 148.011 12.384 148.747 13.152L154.507 19.296L160.315 13.152C161.051 12.384 161.867 12 162.763 12C163.627 12 164.379 12.32 165.019 12.96C165.691 13.6 166.027 14.368 166.027 15.264C166.027 16.096 165.675 16.88 164.971 17.616L158.875 23.904L165.355 30.672Z" fill="#0EA5E9"/>
</svg>
