<svg width="48" height="48" viewBox="0 0 48 48" fill="none" xmlns="http://www.w3.org/2000/svg">
<g clip-path="url(#clip0)">
<path d="M31.1302 29.138C30.6622 29.138 30.2442 28.808 30.1502 28.332C30.0442 27.79 30.3962 27.264 30.9382 27.158L39.3002 25.514C39.7162 25.432 39.9122 25.146 39.9922 24.984C40.1382 24.686 40.1322 24.338 39.9782 24.032C36.4142 16.972 31.0282 11.586 23.9702 8.022C23.6622 7.868 23.3162 7.864 23.0182 8.008C22.8542 8.088 22.5702 8.284 22.4882 8.7L20.8442 17.062C20.7362 17.602 20.2182 17.956 19.6702 17.85C19.1262 17.744 18.7742 17.216 18.8802 16.674L20.5242 8.312C20.7062 7.388 21.2942 6.622 22.1402 6.21C23.0082 5.788 24.0042 5.796 24.8722 6.236C32.3222 9.996 38.0042 15.68 41.7642 23.13C42.2042 24 42.2122 24.994 41.7902 25.86C41.3782 26.704 40.6122 27.294 39.6882 27.476L31.3262 29.12C31.2602 29.132 31.1942 29.138 31.1302 29.138Z" fill="url(#paint0_linear)"/>
<path d="M47.0001 14C46.4481 14 46.0001 13.552 46.0001 13C46.0001 6.934 41.0661 2 35.0001 2C34.4481 2 34.0001 1.552 34.0001 1C34.0001 0.448 34.4481 0 35.0001 0C42.1681 0 48.0001 5.832 48.0001 13C48.0001 13.552 47.5521 14 47.0001 14Z" fill="url(#paint1_linear)"/>
<path d="M41.0001 14C40.4481 14 40.0001 13.552 40.0001 13C40.0001 10.244 37.7561 8 35.0001 8C34.4481 8 34.0001 7.552 34.0001 7C34.0001 6.448 34.4481 6 35.0001 6C38.8601 6 42.0001 9.14 42.0001 13C42.0001 13.552 41.5521 14 41.0001 14Z" fill="url(#paint2_linear)"/>
<path d="M9.00014 44C6.24414 44 4.00014 41.756 4.00014 39C4.00014 37.954 4.32014 36.952 4.92614 36.1L19.0481 16.288C19.2181 16.048 19.4861 15.896 19.7801 15.872C20.0741 15.848 20.3621 15.954 20.5701 16.162L31.8401 27.432C32.0481 27.64 32.1541 27.93 32.1301 28.222C32.1061 28.514 31.9541 28.782 31.7141 28.954L11.9001 43.074C11.0481 43.68 10.0461 44 9.00014 44ZM19.9921 18.412L6.55414 37.26C6.19214 37.77 6.00014 38.372 6.00014 39C6.00014 40.654 7.34614 42 9.00014 42C9.62814 42 10.2301 41.808 10.7401 41.446L29.5901 28.01L19.9921 18.412Z" fill="url(#paint3_linear)"/>
<path d="M1.00003 48C0.744027 48 0.488027 47.902 0.292027 47.708C-0.097973 47.318 -0.097973 46.684 0.292027 46.294L5.29203 41.294C5.68203 40.904 6.31603 40.904 6.70603 41.294C7.09603 41.684 7.09603 42.318 6.70603 42.708L1.70603 47.708C1.51203 47.902 1.25603 48 1.00003 48Z" fill="url(#paint4_linear)"/>
<path d="M15 30C14.744 30 14.488 29.902 14.292 29.708L12.292 27.708C11.902 27.318 11.902 26.684 12.292 26.294C12.682 25.904 13.316 25.904 13.706 26.294L15.706 28.294C16.096 28.684 16.096 29.318 15.706 29.708C15.512 29.902 15.256 30 15 30Z" fill="url(#paint5_linear)"/>
</g>
<defs>
<linearGradient id="paint0_linear" x1="21.7112" y1="9.55772" x2="41.4575" y2="17.3785" gradientUnits="userSpaceOnUse">
<stop stop-color="#38BDF8"/>
<stop offset="1" stop-color="#7DD3FC"/>
</linearGradient>
<linearGradient id="paint1_linear" x1="35.717" y1="2.20383" x2="47.6129" y2="6.91516" gradientUnits="userSpaceOnUse">
<stop stop-color="#38BDF8"/>
<stop offset="1" stop-color="#7DD3FC"/>
</linearGradient>
<linearGradient id="paint2_linear" x1="34.9812" y1="7.25933" x2="41.7788" y2="9.95151" gradientUnits="userSpaceOnUse">
<stop stop-color="#38BDF8"/>
<stop offset="1" stop-color="#7DD3FC"/>
</linearGradient>
<linearGradient id="paint3_linear" x1="7.45018" y1="20.297" x2="31.3548" y2="29.765" gradientUnits="userSpaceOnUse">
<stop stop-color="#38BDF8"/>
<stop offset="1" stop-color="#7DD3FC"/>
</linearGradient>
<linearGradient id="paint4_linear" x1="0.857827" y1="42.1032" x2="6.8048" y2="44.4586" gradientUnits="userSpaceOnUse">
<stop stop-color="#38BDF8"/>
<stop offset="1" stop-color="#7DD3FC"/>
</linearGradient>
<linearGradient id="paint5_linear" x1="12.4899" y1="26.6309" x2="15.8878" y2="27.9768" gradientUnits="userSpaceOnUse">
<stop stop-color="#38BDF8"/>
<stop offset="1" stop-color="#7DD3FC"/>
</linearGradient>
<clipPath id="clip0">
<rect width="48" height="48" fill="white"/>
</clipPath>
</defs>
</svg>
