<svg width="28" height="28" viewBox="0 0 28 28" fill="none" xmlns="http://www.w3.org/2000/svg">
<path d="M19.8333 25.6666H8.16667C6.878 25.6666 5.83333 24.622 5.83333 23.3333V8.16665H3.5V5.83331H8.16667V4.66665C8.16667 3.37798 9.21134 2.33331 10.5 2.33331H17.5C18.7887 2.33331 19.8333 3.37798 19.8333 4.66665V5.83331H24.5V8.16665H22.1667V23.3333C22.1667 24.622 21.122 25.6666 19.8333 25.6666ZM8.16667 8.16665V23.3333H19.8333V8.16665H8.16667ZM10.5 4.66665V5.83331H17.5V4.66665H10.5ZM17.5 21H15.1667V10.5H17.5V21ZM12.8333 21H10.5V10.5H12.8333V21Z" fill="#FB7185"/>
</svg>
