<svg width="28" height="28" viewBox="0 0 28 28" fill="none" xmlns="http://www.w3.org/2000/svg">
<path d="M5.15666 24.0088C4.82939 24.0083 4.51741 23.8703 4.29683 23.6285C4.07218 23.3887 3.96055 23.0644 3.98999 22.7372L4.27583 19.5942L17.4802 6.39449L21.6067 10.5198L8.40583 23.7183L5.26283 24.0042C5.22666 24.0077 5.19049 24.0088 5.15666 24.0088ZM22.4303 9.69499L18.305 5.56966L20.7795 3.09516C20.9983 2.87609 21.2953 2.75299 21.6049 2.75299C21.9146 2.75299 22.2115 2.87609 22.4303 3.09516L24.9048 5.56966C25.1239 5.78849 25.247 6.08543 25.247 6.39507C25.247 6.70472 25.1239 7.00166 24.9048 7.22049L22.4315 9.69382L22.4303 9.69499Z" fill="#FBBF24"/>
</svg>
