<svg width="28" height="28" viewBox="0 0 28 28" fill="none" xmlns="http://www.w3.org/2000/svg">
<path d="M22.1667 25.6666H5.83333C4.54467 25.6666 3.5 24.622 3.5 23.3333V6.99998C3.5 5.71132 4.54467 4.66665 5.83333 4.66665H8.16667V2.33331H10.5V4.66665H17.5V2.33331H19.8333V4.66665H22.1667C23.4553 4.66665 24.5 5.71132 24.5 6.99998V23.3333C24.5 24.622 23.4553 25.6666 22.1667 25.6666ZM5.83333 11.6666V23.3333H22.1667V11.6666H5.83333ZM5.83333 6.99998V9.33331H22.1667V6.99998H5.83333ZM19.8333 21H17.5V18.6666H19.8333V21ZM15.1667 21H12.8333V18.6666H15.1667V21ZM10.5 21H8.16667V18.6666H10.5V21ZM19.8333 16.3333H17.5V14H19.8333V16.3333ZM15.1667 16.3333H12.8333V14H15.1667V16.3333ZM10.5 16.3333H8.16667V14H10.5V16.3333Z" fill="#44403C"/>
</svg>
