<svg width="28" height="28" viewBox="0 0 28 28" fill="none" xmlns="http://www.w3.org/2000/svg">
<path d="M23.3335 23.3333H4.66683C3.4191 23.3707 2.37598 22.3922 2.3335 21.1447V6.85416C2.37598 5.60677 3.41929 4.62866 4.66683 4.66666H23.3335C24.581 4.62866 25.6243 5.60677 25.6668 6.85416V21.1458C25.6237 22.3929 24.5808 23.3707 23.3335 23.3333ZM4.66683 6.99999V20.9872L23.3335 21V7.01283L4.66683 6.99999ZM15.6685 18.6667H7.00016C7.08594 17.7007 7.54306 16.8057 8.27533 16.17C9.09063 15.3612 10.1861 14.8974 11.3343 14.875C12.4826 14.8974 13.578 15.3612 14.3933 16.17C15.1254 16.8059 15.5825 17.7008 15.6685 18.6667ZM21.0002 17.5H17.5002V15.1667H21.0002V17.5ZM11.3343 14C10.7091 14.0217 10.1029 13.7829 9.6605 13.3405C9.21812 12.8981 8.97927 12.2919 9.001 11.6667C8.97962 11.0415 9.21858 10.4355 9.66088 9.99321C10.1032 9.55091 10.7092 9.31195 11.3343 9.33333C11.9595 9.31195 12.5655 9.55091 13.0078 9.99321C13.4501 10.4355 13.689 11.0415 13.6677 11.6667C13.6894 12.2919 13.4505 12.8981 13.0082 13.3405C12.5658 13.7829 11.9596 14.0217 11.3343 14ZM21.0002 12.8333H16.3335V10.5H21.0002V12.8333Z" fill="#44403C"/>
</svg>
